<mxfile host="app.diagrams.net" modified="2024-01-24T09:23:51.163Z" agent="Mozilla/5.0 (Windows NT 10.0; Win64; x64; rv:121.0) Gecko/20100101 Firefox/121.0" etag="vibTRXN_xAys_dCMAoYq" version="22.1.21" type="github">
  <diagram name="Page-1" id="7e0a89b8-554c-2b80-1dc8-d5c74ca68de4">
    <mxGraphModel dx="2963" dy="1580" grid="1" gridSize="10" guides="1" tooltips="1" connect="1" arrows="1" fold="1" page="1" pageScale="1" pageWidth="1450" pageHeight="350" background="none" math="0" shadow="0">
      <root>
        <mxCell id="0" />
        <mxCell id="1" parent="0" />
        <mxCell id="sVo7RDJms1JuLm0rQUv_-1" value="&lt;div&gt;&lt;font face=&quot;Century&quot;&gt;&lt;b&gt;32.768kHz&lt;/b&gt;&lt;/font&gt;&lt;/div&gt;&lt;div&gt;&lt;font face=&quot;Century&quot;&gt;&lt;b&gt;SG_3030CM&lt;br&gt;&lt;/b&gt;&lt;/font&gt;&lt;/div&gt;" style="pointerEvents=1;verticalLabelPosition=bottom;shadow=0;dashed=0;align=center;html=1;verticalAlign=top;shape=mxgraph.electrical.signal_sources.source;aspect=fixed;points=[[0.5,0,0],[1,0.5,0],[0.5,1,0],[0,0.5,0]];elSignalType=square;" parent="1" vertex="1">
          <mxGeometry x="112" y="38.5" width="60" height="60" as="geometry" />
        </mxCell>
        <mxCell id="sVo7RDJms1JuLm0rQUv_-8" value="" style="endArrow=none;html=1;rounded=0;exitX=0.515;exitY=0.583;exitDx=0;exitDy=0;exitPerimeter=0;entryX=0;entryY=0.5;entryDx=0;entryDy=0;" parent="1" source="sVo7RDJms1JuLm0rQUv_-48" target="sVo7RDJms1JuLm0rQUv_-72" edge="1">
          <mxGeometry width="50" height="50" relative="1" as="geometry">
            <mxPoint x="659" y="494.5" as="sourcePoint" />
            <mxPoint x="729" y="494.5" as="targetPoint" />
          </mxGeometry>
        </mxCell>
        <mxCell id="sVo7RDJms1JuLm0rQUv_-14" value="" style="rounded=0;whiteSpace=wrap;html=1;" parent="1" vertex="1">
          <mxGeometry x="197" y="37" width="65" height="63" as="geometry" />
        </mxCell>
        <mxCell id="sVo7RDJms1JuLm0rQUv_-18" value="" style="endArrow=none;html=1;rounded=0;entryX=0;entryY=0.5;entryDx=0;entryDy=0;exitX=1;exitY=0.5;exitDx=0;exitDy=0;exitPerimeter=0;" parent="1" source="sVo7RDJms1JuLm0rQUv_-1" target="sVo7RDJms1JuLm0rQUv_-14" edge="1">
          <mxGeometry width="50" height="50" relative="1" as="geometry">
            <mxPoint x="135" y="168" as="sourcePoint" />
            <mxPoint x="205" y="168" as="targetPoint" />
          </mxGeometry>
        </mxCell>
        <mxCell id="sVo7RDJms1JuLm0rQUv_-20" value="&lt;div&gt;&lt;font face=&quot;Century&quot;&gt;&lt;b&gt;Active LPF&lt;/b&gt;&lt;/font&gt;&lt;/div&gt;&lt;div&gt;&lt;font face=&quot;Century&quot;&gt;&lt;b&gt;&lt;i&gt;fc = &lt;/i&gt;31.2kHz&lt;br&gt;&lt;/b&gt;&lt;/font&gt;&lt;/div&gt;" style="text;html=1;align=center;verticalAlign=middle;resizable=0;points=[];autosize=1;strokeColor=none;fillColor=none;fontFamily=Helvetica;" parent="1" vertex="1">
          <mxGeometry x="179" y="100" width="100" height="40" as="geometry" />
        </mxCell>
        <mxCell id="sVo7RDJms1JuLm0rQUv_-22" value="&lt;b&gt;10nF&lt;/b&gt;" style="pointerEvents=1;verticalLabelPosition=bottom;shadow=0;dashed=0;align=center;html=1;verticalAlign=top;shape=mxgraph.electrical.capacitors.capacitor_1;fontFamily=Century;spacingTop=-7;" parent="1" vertex="1">
          <mxGeometry x="664" y="49.5" width="80" height="40" as="geometry" />
        </mxCell>
        <mxCell id="sVo7RDJms1JuLm0rQUv_-24" value="" style="rounded=0;whiteSpace=wrap;html=1;fontFamily=Helvetica;fillColor=#666666;strokeColor=#000000;fontColor=#ffffff;rotation=90;strokeWidth=2;" parent="1" vertex="1">
          <mxGeometry x="527" y="117.69" width="120" height="90" as="geometry" />
        </mxCell>
        <mxCell id="sVo7RDJms1JuLm0rQUv_-25" value="" style="rounded=0;whiteSpace=wrap;html=1;fontFamily=Helvetica;fillColor=#E3C500;rotation=0;fontColor=#000000;strokeColor=#B09500;" parent="1" vertex="1">
          <mxGeometry x="560" y="102.69" width="20" height="120" as="geometry" />
        </mxCell>
        <mxCell id="sVo7RDJms1JuLm0rQUv_-26" value="" style="rounded=0;whiteSpace=wrap;html=1;fontFamily=Helvetica;fillColor=#E3C500;rotation=0;fontColor=#000000;strokeColor=#B09500;" parent="1" vertex="1">
          <mxGeometry x="595" y="102.69" width="20" height="120" as="geometry" />
        </mxCell>
        <mxCell id="sVo7RDJms1JuLm0rQUv_-30" value="" style="shape=waypoint;sketch=0;fillStyle=solid;size=6;pointerEvents=1;points=[];fillColor=none;resizable=0;rotatable=0;perimeter=centerPerimeter;snapToPoint=1;verticalAlign=top;spacingBottom=0;spacingTop=-5;fontFamily=Verdana;fontSize=12;" parent="1" vertex="1">
          <mxGeometry x="550" y="48.69" width="40" height="40" as="geometry" />
        </mxCell>
        <mxCell id="sVo7RDJms1JuLm0rQUv_-35" value="&lt;b&gt;5.1kΩ&lt;/b&gt;" style="pointerEvents=1;verticalLabelPosition=bottom;shadow=0;dashed=0;align=center;html=1;verticalAlign=top;shape=mxgraph.electrical.resistors.resistor_2;rotation=-90;fontFamily=Century;" parent="1" vertex="1">
          <mxGeometry x="714" y="94.5" width="70" height="20" as="geometry" />
        </mxCell>
        <mxCell id="sVo7RDJms1JuLm0rQUv_-36" value="" style="endArrow=none;html=1;rounded=0;exitDx=0;exitDy=0;exitPerimeter=0;startArrow=none;entryX=0;entryY=0.5;entryDx=0;entryDy=0;" parent="1" source="sVo7RDJms1JuLm0rQUv_-38" target="sVo7RDJms1JuLm0rQUv_-53" edge="1">
          <mxGeometry width="50" height="50" relative="1" as="geometry">
            <mxPoint x="774" y="64.5" as="sourcePoint" />
            <mxPoint x="749" y="-35.5" as="targetPoint" />
          </mxGeometry>
        </mxCell>
        <mxCell id="sVo7RDJms1JuLm0rQUv_-37" value="&lt;b&gt;5.1kΩ&lt;/b&gt;" style="pointerEvents=1;verticalLabelPosition=bottom;shadow=0;dashed=0;align=center;html=1;verticalAlign=top;shape=mxgraph.electrical.resistors.resistor_2;rotation=-90;fontFamily=Century;" parent="1" vertex="1">
          <mxGeometry x="714" y="204.5" width="70" height="20" as="geometry" />
        </mxCell>
        <mxCell id="sVo7RDJms1JuLm0rQUv_-38" value="" style="shape=waypoint;sketch=0;fillStyle=solid;size=6;pointerEvents=1;points=[];fillColor=none;resizable=0;rotatable=0;perimeter=centerPerimeter;snapToPoint=1;verticalAlign=top;spacingBottom=0;spacingTop=-5;fontFamily=Verdana;fontSize=12;" parent="1" vertex="1">
          <mxGeometry x="729" y="49.5" width="40" height="40" as="geometry" />
        </mxCell>
        <mxCell id="sVo7RDJms1JuLm0rQUv_-39" value="" style="endArrow=none;html=1;rounded=0;exitX=1;exitY=0.5;exitDx=0;exitDy=0;exitPerimeter=0;" parent="1" source="sVo7RDJms1JuLm0rQUv_-22" target="sVo7RDJms1JuLm0rQUv_-38" edge="1">
          <mxGeometry width="50" height="50" relative="1" as="geometry">
            <mxPoint x="744" y="69.5" as="sourcePoint" />
            <mxPoint x="864" y="69.5" as="targetPoint" />
          </mxGeometry>
        </mxCell>
        <mxCell id="sVo7RDJms1JuLm0rQUv_-40" value="&lt;div&gt;&lt;font face=&quot;Century&quot;&gt;&lt;b&gt;V&lt;sub&gt;bias&lt;/sub&gt;&lt;/b&gt;&lt;/font&gt;&lt;/div&gt;&lt;div style=&quot;font-size: 18px;&quot;&gt;&lt;font face=&quot;Century&quot;&gt;(V&lt;sub&gt;dd&lt;/sub&gt;/2&lt;sub&gt;)&lt;/sub&gt;&lt;/font&gt;&lt;/div&gt;" style="verticalLabelPosition=top;verticalAlign=bottom;shape=mxgraph.electrical.signal_sources.vdd;shadow=0;dashed=0;align=center;strokeWidth=1;fontSize=24;html=1;flipV=1;fontFamily=Helvetica;fillColor=#663300;rotation=-90;" parent="1" vertex="1">
          <mxGeometry x="694" y="144.5" width="60" height="40" as="geometry" />
        </mxCell>
        <mxCell id="sVo7RDJms1JuLm0rQUv_-43" value="" style="shape=waypoint;sketch=0;fillStyle=solid;size=6;pointerEvents=1;points=[];fillColor=none;resizable=0;rotatable=0;perimeter=centerPerimeter;snapToPoint=1;verticalAlign=top;spacingBottom=0;spacingTop=-5;fontFamily=Verdana;fontSize=12;" parent="1" vertex="1">
          <mxGeometry x="729" y="144.5" width="40" height="40" as="geometry" />
        </mxCell>
        <mxCell id="sVo7RDJms1JuLm0rQUv_-44" value="" style="endArrow=none;html=1;rounded=0;exitX=0.5;exitY=0;exitDx=0;exitDy=0;exitPerimeter=0;" parent="1" source="sVo7RDJms1JuLm0rQUv_-40" target="sVo7RDJms1JuLm0rQUv_-43" edge="1">
          <mxGeometry width="50" height="50" relative="1" as="geometry">
            <mxPoint x="744.0000000000002" y="344.5" as="sourcePoint" />
            <mxPoint x="814.0000000000002" y="344.5" as="targetPoint" />
          </mxGeometry>
        </mxCell>
        <mxCell id="sVo7RDJms1JuLm0rQUv_-45" value="" style="endArrow=none;html=1;rounded=0;entryX=1;entryY=0.5;entryDx=0;entryDy=0;entryPerimeter=0;" parent="1" source="sVo7RDJms1JuLm0rQUv_-43" target="sVo7RDJms1JuLm0rQUv_-37" edge="1">
          <mxGeometry width="50" height="50" relative="1" as="geometry">
            <mxPoint x="824" y="264.5" as="sourcePoint" />
            <mxPoint x="824" y="214.5" as="targetPoint" />
          </mxGeometry>
        </mxCell>
        <mxCell id="sVo7RDJms1JuLm0rQUv_-46" value="" style="endArrow=none;html=1;rounded=0;entryX=0;entryY=0.5;entryDx=0;entryDy=0;entryPerimeter=0;" parent="1" source="sVo7RDJms1JuLm0rQUv_-43" target="sVo7RDJms1JuLm0rQUv_-35" edge="1">
          <mxGeometry width="50" height="50" relative="1" as="geometry">
            <mxPoint x="824" y="564.5" as="sourcePoint" />
            <mxPoint x="824" y="514.5" as="targetPoint" />
          </mxGeometry>
        </mxCell>
        <mxCell id="sVo7RDJms1JuLm0rQUv_-47" value="" style="endArrow=none;html=1;rounded=0;entryX=0;entryY=0.5;entryDx=0;entryDy=0;entryPerimeter=0;" parent="1" source="sVo7RDJms1JuLm0rQUv_-48" target="sVo7RDJms1JuLm0rQUv_-37" edge="1">
          <mxGeometry width="50" height="50" relative="1" as="geometry">
            <mxPoint x="755.71" y="324.5" as="sourcePoint" />
            <mxPoint x="755.71" y="274.5" as="targetPoint" />
          </mxGeometry>
        </mxCell>
        <mxCell id="sVo7RDJms1JuLm0rQUv_-48" value="" style="shape=waypoint;sketch=0;fillStyle=solid;size=6;pointerEvents=1;points=[];fillColor=none;resizable=0;rotatable=0;perimeter=centerPerimeter;snapToPoint=1;verticalAlign=top;spacingBottom=0;spacingTop=-5;fontFamily=Verdana;fontSize=12;" parent="1" vertex="1">
          <mxGeometry x="729" y="238.5" width="40" height="40" as="geometry" />
        </mxCell>
        <mxCell id="sVo7RDJms1JuLm0rQUv_-50" value="&lt;b&gt;10nF&lt;/b&gt;" style="pointerEvents=1;verticalLabelPosition=bottom;shadow=0;dashed=0;align=center;html=1;verticalAlign=top;shape=mxgraph.electrical.capacitors.capacitor_1;fontFamily=Century;spacingTop=-7;" parent="1" vertex="1">
          <mxGeometry x="664" y="238.5" width="80" height="40" as="geometry" />
        </mxCell>
        <mxCell id="sVo7RDJms1JuLm0rQUv_-51" value="" style="endArrow=none;html=1;rounded=0;entryX=1;entryY=0.5;entryDx=0;entryDy=0;entryPerimeter=0;exitX=0.535;exitY=0.565;exitDx=0;exitDy=0;exitPerimeter=0;" parent="1" source="sVo7RDJms1JuLm0rQUv_-48" target="sVo7RDJms1JuLm0rQUv_-50" edge="1">
          <mxGeometry width="50" height="50" relative="1" as="geometry">
            <mxPoint x="854" y="274.5" as="sourcePoint" />
            <mxPoint x="759" y="259.5" as="targetPoint" />
          </mxGeometry>
        </mxCell>
        <mxCell id="sVo7RDJms1JuLm0rQUv_-52" value="&lt;div&gt;&lt;font face=&quot;Century&quot;&gt;&lt;b&gt;Textile-based&amp;nbsp;&lt;/b&gt;&lt;/font&gt;&lt;/div&gt;&lt;div&gt;&lt;font face=&quot;Century&quot;&gt;&lt;b&gt;electrodes&lt;/b&gt;&lt;/font&gt;&lt;/div&gt;" style="text;html=1;align=center;verticalAlign=middle;resizable=0;points=[];autosize=1;strokeColor=none;fillColor=none;fontSize=18;fontFamily=Helvetica;fontColor=#333333;rotation=-90;" parent="1" vertex="1">
          <mxGeometry x="447" y="132.69" width="140" height="60" as="geometry" />
        </mxCell>
        <mxCell id="sVo7RDJms1JuLm0rQUv_-53" value="&lt;b&gt;Voltage follower&lt;br&gt;&lt;/b&gt;" style="rounded=0;whiteSpace=wrap;html=1;labelBackgroundColor=none;fontFamily=Century;fontSize=18;fillColor=none;" parent="1" vertex="1">
          <mxGeometry x="809" y="39.5" width="94" height="60" as="geometry" />
        </mxCell>
        <mxCell id="sVo7RDJms1JuLm0rQUv_-57" value="&lt;font face=&quot;Century&quot; style=&quot;font-size: 18px;&quot;&gt;&lt;b&gt;Envelope detector&lt;br&gt;&lt;/b&gt;&lt;/font&gt;" style="rounded=0;whiteSpace=wrap;html=1;labelBackgroundColor=none;fontFamily=Helvetica;fontSize=18;fillColor=none;" parent="1" vertex="1">
          <mxGeometry x="925" y="39.5" width="120" height="60" as="geometry" />
        </mxCell>
        <mxCell id="sVo7RDJms1JuLm0rQUv_-58" value="&lt;font face=&quot;Century&quot;&gt;&lt;b&gt;Voltage follower&lt;br&gt;&lt;/b&gt;&lt;/font&gt;" style="rounded=0;whiteSpace=wrap;html=1;labelBackgroundColor=none;fontFamily=Helvetica;fontSize=18;fillColor=none;" parent="1" vertex="1">
          <mxGeometry x="1069" y="39.5" width="93" height="60" as="geometry" />
        </mxCell>
        <mxCell id="sVo7RDJms1JuLm0rQUv_-65" value="" style="shape=mxgraph.arrows2.arrow;verticalLabelPosition=bottom;shadow=0;dashed=0;align=center;html=1;verticalAlign=top;strokeWidth=1;dy=0;dx=10;notch=0;labelBackgroundColor=none;fontFamily=Helvetica;fontSize=18;fillColor=none;" parent="1" vertex="1">
          <mxGeometry x="1277.25" y="54.5" width="93" height="30" as="geometry" />
        </mxCell>
        <mxCell id="sVo7RDJms1JuLm0rQUv_-66" value="&lt;font face=&quot;Century&quot;&gt;&lt;b&gt;Output1&lt;/b&gt;&lt;/font&gt;" style="text;html=1;align=center;verticalAlign=middle;resizable=0;points=[];autosize=1;strokeColor=none;fillColor=none;fontSize=18;fontFamily=Helvetica;" parent="1" vertex="1">
          <mxGeometry x="1270.25" y="48.69" width="100" height="40" as="geometry" />
        </mxCell>
        <mxCell id="sVo7RDJms1JuLm0rQUv_-67" value="" style="endArrow=none;html=1;rounded=0;exitX=1;exitY=0.5;exitDx=0;exitDy=0;entryX=0;entryY=0.5;entryDx=0;entryDy=0;" parent="1" source="sVo7RDJms1JuLm0rQUv_-53" target="sVo7RDJms1JuLm0rQUv_-57" edge="1">
          <mxGeometry width="50" height="50" relative="1" as="geometry">
            <mxPoint x="833" y="204.5" as="sourcePoint" />
            <mxPoint x="912" y="69.5" as="targetPoint" />
          </mxGeometry>
        </mxCell>
        <mxCell id="sVo7RDJms1JuLm0rQUv_-69" value="" style="endArrow=none;html=1;rounded=0;entryX=0;entryY=0.5;entryDx=0;entryDy=0;" parent="1" source="sVo7RDJms1JuLm0rQUv_-57" target="sVo7RDJms1JuLm0rQUv_-58" edge="1">
          <mxGeometry width="50" height="50" relative="1" as="geometry">
            <mxPoint x="892" y="164" as="sourcePoint" />
            <mxPoint x="962" y="164" as="targetPoint" />
          </mxGeometry>
        </mxCell>
        <mxCell id="sVo7RDJms1JuLm0rQUv_-70" value="" style="endArrow=none;html=1;rounded=0;exitX=1;exitY=0.5;exitDx=0;exitDy=0;entryX=0;entryY=0.5;entryDx=0;entryDy=0;" parent="1" source="sVo7RDJms1JuLm0rQUv_-58" edge="1">
          <mxGeometry width="50" height="50" relative="1" as="geometry">
            <mxPoint x="1092" y="134" as="sourcePoint" />
            <mxPoint x="1189" y="69.5" as="targetPoint" />
          </mxGeometry>
        </mxCell>
        <mxCell id="sVo7RDJms1JuLm0rQUv_-71" value="" style="endArrow=none;html=1;rounded=0;exitX=1;exitY=0.5;exitDx=0;exitDy=0;entryX=0;entryY=0.5;entryDx=0;entryDy=0;entryPerimeter=0;" parent="1" target="sVo7RDJms1JuLm0rQUv_-65" edge="1">
          <mxGeometry width="50" height="50" relative="1" as="geometry">
            <mxPoint x="1247.75" y="69.5" as="sourcePoint" />
            <mxPoint x="1251.25" y="174.5" as="targetPoint" />
            <Array as="points" />
          </mxGeometry>
        </mxCell>
        <mxCell id="sVo7RDJms1JuLm0rQUv_-72" value="&lt;b&gt;Voltage follower&lt;br&gt;&lt;/b&gt;" style="rounded=0;whiteSpace=wrap;html=1;labelBackgroundColor=none;fontFamily=Century;fontSize=18;fillColor=none;" parent="1" vertex="1">
          <mxGeometry x="809" y="228.5" width="94" height="60" as="geometry" />
        </mxCell>
        <mxCell id="sVo7RDJms1JuLm0rQUv_-74" value="&lt;font face=&quot;Century&quot;&gt;&lt;b&gt;Envelope detector&lt;br&gt;&lt;/b&gt;&lt;/font&gt;" style="rounded=0;whiteSpace=wrap;html=1;labelBackgroundColor=none;fontFamily=Helvetica;fontSize=18;fillColor=none;" parent="1" vertex="1">
          <mxGeometry x="925" y="228.5" width="120" height="60" as="geometry" />
        </mxCell>
        <mxCell id="sVo7RDJms1JuLm0rQUv_-75" value="&lt;font face=&quot;Century&quot;&gt;&lt;b&gt;Voltage follower&lt;br&gt;&lt;/b&gt;&lt;/font&gt;" style="rounded=0;whiteSpace=wrap;html=1;labelBackgroundColor=none;fontFamily=Helvetica;fontSize=18;fillColor=none;" parent="1" vertex="1">
          <mxGeometry x="1069" y="228.5" width="93" height="60" as="geometry" />
        </mxCell>
        <mxCell id="sVo7RDJms1JuLm0rQUv_-81" value="" style="shape=mxgraph.arrows2.arrow;verticalLabelPosition=bottom;shadow=0;dashed=0;align=center;html=1;verticalAlign=top;strokeWidth=1;dy=0;dx=10;notch=0;labelBackgroundColor=none;fontFamily=Helvetica;fontSize=18;fillColor=none;" parent="1" vertex="1">
          <mxGeometry x="1277.25" y="243.5" width="93" height="30" as="geometry" />
        </mxCell>
        <mxCell id="sVo7RDJms1JuLm0rQUv_-82" value="&lt;font face=&quot;Century&quot;&gt;&lt;b&gt;Output2&lt;/b&gt;&lt;/font&gt;" style="text;html=1;align=center;verticalAlign=middle;resizable=0;points=[];autosize=1;strokeColor=none;fillColor=none;fontSize=18;fontFamily=Helvetica;" parent="1" vertex="1">
          <mxGeometry x="1270.25" y="237" width="100" height="40" as="geometry" />
        </mxCell>
        <mxCell id="sVo7RDJms1JuLm0rQUv_-83" value="" style="endArrow=none;html=1;rounded=0;exitX=1;exitY=0.5;exitDx=0;exitDy=0;entryX=0;entryY=0.5;entryDx=0;entryDy=0;" parent="1" source="sVo7RDJms1JuLm0rQUv_-72" target="sVo7RDJms1JuLm0rQUv_-74" edge="1">
          <mxGeometry width="50" height="50" relative="1" as="geometry">
            <mxPoint x="833" y="394.5" as="sourcePoint" />
            <mxPoint x="912" y="259" as="targetPoint" />
          </mxGeometry>
        </mxCell>
        <mxCell id="sVo7RDJms1JuLm0rQUv_-85" value="" style="endArrow=none;html=1;rounded=0;entryX=0;entryY=0.5;entryDx=0;entryDy=0;" parent="1" source="sVo7RDJms1JuLm0rQUv_-74" target="sVo7RDJms1JuLm0rQUv_-75" edge="1">
          <mxGeometry width="50" height="50" relative="1" as="geometry">
            <mxPoint x="892" y="354" as="sourcePoint" />
            <mxPoint x="962" y="354" as="targetPoint" />
          </mxGeometry>
        </mxCell>
        <mxCell id="sVo7RDJms1JuLm0rQUv_-86" value="" style="endArrow=none;html=1;rounded=0;exitX=1;exitY=0.5;exitDx=0;exitDy=0;entryX=0;entryY=0.5;entryDx=0;entryDy=0;" parent="1" source="sVo7RDJms1JuLm0rQUv_-75" edge="1">
          <mxGeometry width="50" height="50" relative="1" as="geometry">
            <mxPoint x="1092" y="324" as="sourcePoint" />
            <mxPoint x="1188.75" y="259" as="targetPoint" />
          </mxGeometry>
        </mxCell>
        <mxCell id="sVo7RDJms1JuLm0rQUv_-87" value="" style="endArrow=none;html=1;rounded=0;entryX=0;entryY=0.5;entryDx=0;entryDy=0;entryPerimeter=0;exitX=1.142;exitY=0.017;exitDx=0;exitDy=0;exitPerimeter=0;" parent="1" source="lxvawcKPhnMLxQlRj4R8-42" target="sVo7RDJms1JuLm0rQUv_-81" edge="1">
          <mxGeometry width="50" height="50" relative="1" as="geometry">
            <mxPoint x="1247.5" y="259" as="sourcePoint" />
            <mxPoint x="1251.25" y="364.5" as="targetPoint" />
          </mxGeometry>
        </mxCell>
        <mxCell id="530qpDRSOnJtIDgYeNtD-1" value="&lt;div&gt;&lt;font face=&quot;Century&quot;&gt;&lt;b&gt;25MHz&lt;/b&gt;&lt;/font&gt;&lt;/div&gt;&lt;div&gt;&lt;font face=&quot;Century&quot;&gt;&lt;b&gt;SG_8018CM&lt;br&gt;&lt;/b&gt;&lt;/font&gt;&lt;/div&gt;" style="pointerEvents=1;verticalLabelPosition=bottom;shadow=0;dashed=0;align=center;html=1;verticalAlign=top;shape=mxgraph.electrical.signal_sources.source;aspect=fixed;points=[[0.5,0,0],[1,0.5,0],[0.5,1,0],[0,0.5,0]];elSignalType=square;" parent="1" vertex="1">
          <mxGeometry x="113" y="228" width="60" height="60" as="geometry" />
        </mxCell>
        <mxCell id="530qpDRSOnJtIDgYeNtD-7" value="" style="endArrow=none;html=1;rounded=0;exitX=1;exitY=0.5;exitDx=0;exitDy=0;exitPerimeter=0;entryX=-0.113;entryY=0;entryDx=0;entryDy=0;entryPerimeter=0;" parent="1" source="530qpDRSOnJtIDgYeNtD-1" target="lxvawcKPhnMLxQlRj4R8-29" edge="1">
          <mxGeometry width="50" height="50" relative="1" as="geometry">
            <mxPoint x="164" y="273" as="sourcePoint" />
            <mxPoint x="194.75" y="258" as="targetPoint" />
          </mxGeometry>
        </mxCell>
        <mxCell id="530qpDRSOnJtIDgYeNtD-23" value="" style="verticalLabelPosition=bottom;verticalAlign=top;html=1;shape=mxgraph.basic.acute_triangle;dx=0.5;rotation=90;" parent="1" vertex="1">
          <mxGeometry x="406" y="33.69" width="72.5" height="70" as="geometry" />
        </mxCell>
        <mxCell id="530qpDRSOnJtIDgYeNtD-24" value="" style="endArrow=none;html=1;rounded=0;exitX=0.5;exitY=1;exitDx=0;exitDy=0;exitPerimeter=0;" parent="1" source="530qpDRSOnJtIDgYeNtD-28" target="sVo7RDJms1JuLm0rQUv_-30" edge="1">
          <mxGeometry width="50" height="50" relative="1" as="geometry">
            <mxPoint x="377.25" y="54.94" as="sourcePoint" />
            <mxPoint x="432.25" y="68.44" as="targetPoint" />
          </mxGeometry>
        </mxCell>
        <mxCell id="530qpDRSOnJtIDgYeNtD-25" value="" style="endArrow=none;html=1;rounded=0;exitX=1;exitY=0.5;exitDx=0;exitDy=0;entryX=0;entryY=0.5;entryDx=0;entryDy=0;" parent="1" source="sVo7RDJms1JuLm0rQUv_-14" target="fnM3zL6HeMHkC66Y3rBm-3" edge="1">
          <mxGeometry width="50" height="50" relative="1" as="geometry">
            <mxPoint x="286.25" y="68.44" as="sourcePoint" />
            <mxPoint x="284.75" y="68.5" as="targetPoint" />
          </mxGeometry>
        </mxCell>
        <mxCell id="530qpDRSOnJtIDgYeNtD-26" value="" style="endArrow=none;html=1;rounded=0;entryX=0.143;entryY=0.544;entryDx=0;entryDy=0;entryPerimeter=0;" parent="1" edge="1">
          <mxGeometry width="50" height="50" relative="1" as="geometry">
            <mxPoint x="419.99" y="119.42" as="sourcePoint" />
            <mxPoint x="430" y="119.42999999999999" as="targetPoint" />
          </mxGeometry>
        </mxCell>
        <mxCell id="530qpDRSOnJtIDgYeNtD-27" value="" style="endArrow=none;html=1;rounded=0;entryX=0;entryY=0;entryDx=18.125;entryDy=35;entryPerimeter=0;" parent="1" target="530qpDRSOnJtIDgYeNtD-28" edge="1">
          <mxGeometry width="50" height="50" relative="1" as="geometry">
            <mxPoint x="430" y="120" as="sourcePoint" />
            <mxPoint x="442.25" y="142.44" as="targetPoint" />
          </mxGeometry>
        </mxCell>
        <mxCell id="530qpDRSOnJtIDgYeNtD-28" value="" style="verticalLabelPosition=bottom;verticalAlign=top;html=1;shape=mxgraph.basic.acute_triangle;dx=0.5;rotation=-90;" parent="1" vertex="1">
          <mxGeometry x="406" y="33.69" width="72.5" height="70" as="geometry" />
        </mxCell>
        <mxCell id="530qpDRSOnJtIDgYeNtD-29" value="" style="endArrow=none;html=1;rounded=0;exitX=0;exitY=0;exitDx=54.375;exitDy=35;exitPerimeter=0;entryX=0.5;entryY=1;entryDx=0;entryDy=0;entryPerimeter=0;" parent="1" source="530qpDRSOnJtIDgYeNtD-23" target="530qpDRSOnJtIDgYeNtD-28" edge="1">
          <mxGeometry width="50" height="50" relative="1" as="geometry">
            <mxPoint x="486.63" y="92.445" as="sourcePoint" />
            <mxPoint x="637.88" y="109.32" as="targetPoint" />
          </mxGeometry>
        </mxCell>
        <mxCell id="530qpDRSOnJtIDgYeNtD-30" value="" style="endArrow=none;html=1;rounded=0;exitX=0;exitY=0;exitDx=54.375;exitDy=35;exitPerimeter=0;entryX=0.5;entryY=1;entryDx=0;entryDy=0;entryPerimeter=0;" parent="1" source="530qpDRSOnJtIDgYeNtD-28" target="530qpDRSOnJtIDgYeNtD-28" edge="1">
          <mxGeometry width="50" height="50" relative="1" as="geometry">
            <mxPoint x="469.75" y="14.939999999999998" as="sourcePoint" />
            <mxPoint x="512.25" y="42.44" as="targetPoint" />
          </mxGeometry>
        </mxCell>
        <mxCell id="530qpDRSOnJtIDgYeNtD-49" value="&lt;b&gt;&lt;font face=&quot;Century&quot;&gt;Analog switch&lt;/font&gt;&lt;/b&gt;" style="text;html=1;align=center;verticalAlign=middle;resizable=0;points=[];autosize=1;strokeColor=none;fillColor=none;fontFamily=Helvetica;" parent="1" vertex="1">
          <mxGeometry x="392.25" y="7" width="100" height="30" as="geometry" />
        </mxCell>
        <mxCell id="530qpDRSOnJtIDgYeNtD-50" value="&lt;font face=&quot;Century&quot;&gt;&lt;b&gt;Control&lt;/b&gt;&lt;/font&gt;" style="text;html=1;align=center;verticalAlign=middle;resizable=0;points=[];autosize=1;strokeColor=none;fillColor=none;fontFamily=Helvetica;" parent="1" vertex="1">
          <mxGeometry x="360" y="103.69" width="70" height="30" as="geometry" />
        </mxCell>
        <mxCell id="530qpDRSOnJtIDgYeNtD-51" value="" style="endArrow=none;html=1;rounded=0;entryX=0.5;entryY=0;entryDx=0;entryDy=0;entryPerimeter=0;" parent="1" target="sVo7RDJms1JuLm0rQUv_-1" edge="1">
          <mxGeometry width="50" height="50" relative="1" as="geometry">
            <mxPoint x="122" y="27.84" as="sourcePoint" />
            <mxPoint x="162" y="27.84" as="targetPoint" />
            <Array as="points">
              <mxPoint x="132" y="28" />
            </Array>
          </mxGeometry>
        </mxCell>
        <mxCell id="530qpDRSOnJtIDgYeNtD-53" value="&lt;font&gt;&lt;b&gt;Control&lt;/b&gt;&lt;/font&gt;" style="text;html=1;align=center;verticalAlign=middle;resizable=0;points=[];autosize=1;strokeColor=none;fillColor=none;fontFamily=Century;" parent="1" vertex="1">
          <mxGeometry x="63" y="11.5" width="70" height="30" as="geometry" />
        </mxCell>
        <mxCell id="530qpDRSOnJtIDgYeNtD-54" value="" style="endArrow=none;html=1;rounded=0;entryX=0.5;entryY=0;entryDx=0;entryDy=0;entryPerimeter=0;" parent="1" edge="1">
          <mxGeometry width="50" height="50" relative="1" as="geometry">
            <mxPoint x="123" y="217.84" as="sourcePoint" />
            <mxPoint x="143" y="228" as="targetPoint" />
            <Array as="points">
              <mxPoint x="133" y="218" />
            </Array>
          </mxGeometry>
        </mxCell>
        <mxCell id="530qpDRSOnJtIDgYeNtD-55" value="&lt;font face=&quot;Century&quot;&gt;&lt;b&gt;Control&lt;/b&gt;&lt;/font&gt;" style="text;html=1;align=center;verticalAlign=middle;resizable=0;points=[];autosize=1;strokeColor=none;fillColor=none;fontFamily=Century;" parent="1" vertex="1">
          <mxGeometry x="63" y="202" width="70" height="30" as="geometry" />
        </mxCell>
        <mxCell id="530qpDRSOnJtIDgYeNtD-57" value="" style="endArrow=none;html=1;rounded=0;exitX=0.438;exitY=0.582;exitDx=0;exitDy=0;exitPerimeter=0;entryX=0.5;entryY=0;entryDx=0;entryDy=0;" parent="1" source="sVo7RDJms1JuLm0rQUv_-30" target="sVo7RDJms1JuLm0rQUv_-25" edge="1">
          <mxGeometry width="50" height="50" relative="1" as="geometry">
            <mxPoint x="532" y="79" as="sourcePoint" />
            <mxPoint x="576" y="79" as="targetPoint" />
          </mxGeometry>
        </mxCell>
        <mxCell id="530qpDRSOnJtIDgYeNtD-58" value="" style="endArrow=none;html=1;rounded=0;exitX=0.562;exitY=0.512;exitDx=0;exitDy=0;exitPerimeter=0;entryX=0;entryY=0.5;entryDx=0;entryDy=0;entryPerimeter=0;" parent="1" source="sVo7RDJms1JuLm0rQUv_-30" target="sVo7RDJms1JuLm0rQUv_-22" edge="1">
          <mxGeometry width="50" height="50" relative="1" as="geometry">
            <mxPoint x="526" y="79" as="sourcePoint" />
            <mxPoint x="636" y="69" as="targetPoint" />
          </mxGeometry>
        </mxCell>
        <mxCell id="530qpDRSOnJtIDgYeNtD-68" value="" style="shape=waypoint;sketch=0;fillStyle=solid;size=6;pointerEvents=1;points=[];fillColor=none;resizable=0;rotatable=0;perimeter=centerPerimeter;snapToPoint=1;verticalAlign=top;spacingBottom=0;spacingTop=-5;fontFamily=Verdana;fontSize=12;" parent="1" vertex="1">
          <mxGeometry x="585" y="238.69" width="40" height="40" as="geometry" />
        </mxCell>
        <mxCell id="530qpDRSOnJtIDgYeNtD-69" value="" style="verticalLabelPosition=bottom;verticalAlign=top;html=1;shape=mxgraph.basic.acute_triangle;dx=0.5;rotation=90;" parent="1" vertex="1">
          <mxGeometry x="406" y="223.69" width="72.5" height="70" as="geometry" />
        </mxCell>
        <mxCell id="530qpDRSOnJtIDgYeNtD-70" value="" style="endArrow=none;html=1;rounded=0;exitX=0.5;exitY=1;exitDx=0;exitDy=0;exitPerimeter=0;entryX=0.141;entryY=0.927;entryDx=0;entryDy=0;entryPerimeter=0;" parent="1" source="530qpDRSOnJtIDgYeNtD-74" target="530qpDRSOnJtIDgYeNtD-68" edge="1">
          <mxGeometry width="50" height="50" relative="1" as="geometry">
            <mxPoint x="377.25" y="244.94" as="sourcePoint" />
            <mxPoint x="432.25" y="258.44" as="targetPoint" />
          </mxGeometry>
        </mxCell>
        <mxCell id="530qpDRSOnJtIDgYeNtD-71" value="" style="endArrow=none;html=1;rounded=0;exitX=1;exitY=0.5;exitDx=0;exitDy=0;entryX=0;entryY=0.5;entryDx=0;entryDy=0;" parent="1" target="fnM3zL6HeMHkC66Y3rBm-5" edge="1" source="lxvawcKPhnMLxQlRj4R8-26">
          <mxGeometry width="50" height="50" relative="1" as="geometry">
            <mxPoint x="256.25" y="258" as="sourcePoint" />
            <mxPoint x="284.75" y="258.5" as="targetPoint" />
          </mxGeometry>
        </mxCell>
        <mxCell id="530qpDRSOnJtIDgYeNtD-74" value="" style="verticalLabelPosition=bottom;verticalAlign=top;html=1;shape=mxgraph.basic.acute_triangle;dx=0.5;rotation=-90;" parent="1" vertex="1">
          <mxGeometry x="406" y="223.69" width="72.5" height="70" as="geometry" />
        </mxCell>
        <mxCell id="530qpDRSOnJtIDgYeNtD-75" value="" style="endArrow=none;html=1;rounded=0;exitX=0;exitY=0;exitDx=54.375;exitDy=35;exitPerimeter=0;entryX=0.5;entryY=1;entryDx=0;entryDy=0;entryPerimeter=0;" parent="1" source="530qpDRSOnJtIDgYeNtD-69" target="530qpDRSOnJtIDgYeNtD-74" edge="1">
          <mxGeometry width="50" height="50" relative="1" as="geometry">
            <mxPoint x="486.63" y="282.445" as="sourcePoint" />
            <mxPoint x="637.88" y="299.32" as="targetPoint" />
          </mxGeometry>
        </mxCell>
        <mxCell id="530qpDRSOnJtIDgYeNtD-76" value="" style="endArrow=none;html=1;rounded=0;exitX=0;exitY=0;exitDx=54.375;exitDy=35;exitPerimeter=0;entryX=0.5;entryY=1;entryDx=0;entryDy=0;entryPerimeter=0;" parent="1" source="530qpDRSOnJtIDgYeNtD-74" target="530qpDRSOnJtIDgYeNtD-74" edge="1">
          <mxGeometry width="50" height="50" relative="1" as="geometry">
            <mxPoint x="469.75" y="204.94" as="sourcePoint" />
            <mxPoint x="512.25" y="232.44" as="targetPoint" />
          </mxGeometry>
        </mxCell>
        <mxCell id="530qpDRSOnJtIDgYeNtD-77" value="&lt;b&gt;&lt;font face=&quot;Century&quot;&gt;Analog switch&lt;/font&gt;&lt;/b&gt;" style="text;html=1;align=center;verticalAlign=middle;resizable=0;points=[];autosize=1;strokeColor=none;fillColor=none;fontFamily=Helvetica;" parent="1" vertex="1">
          <mxGeometry x="391.5" y="197" width="100" height="30" as="geometry" />
        </mxCell>
        <mxCell id="530qpDRSOnJtIDgYeNtD-79" value="" style="endArrow=none;html=1;rounded=0;exitX=0.5;exitY=1;exitDx=0;exitDy=0;" parent="1" source="sVo7RDJms1JuLm0rQUv_-26" target="530qpDRSOnJtIDgYeNtD-68" edge="1">
          <mxGeometry width="50" height="50" relative="1" as="geometry">
            <mxPoint x="607" y="263" as="sourcePoint" />
            <mxPoint x="567" y="293" as="targetPoint" />
          </mxGeometry>
        </mxCell>
        <mxCell id="530qpDRSOnJtIDgYeNtD-80" value="" style="endArrow=none;html=1;rounded=0;exitX=0.542;exitY=0.561;exitDx=0;exitDy=0;exitPerimeter=0;entryX=0;entryY=0.5;entryDx=0;entryDy=0;entryPerimeter=0;" parent="1" source="530qpDRSOnJtIDgYeNtD-68" target="sVo7RDJms1JuLm0rQUv_-50" edge="1">
          <mxGeometry width="50" height="50" relative="1" as="geometry">
            <mxPoint x="566" y="270.07" as="sourcePoint" />
            <mxPoint x="626" y="259" as="targetPoint" />
          </mxGeometry>
        </mxCell>
        <mxCell id="530qpDRSOnJtIDgYeNtD-81" value="" style="endArrow=none;html=1;rounded=0;" parent="1" edge="1">
          <mxGeometry width="50" height="50" relative="1" as="geometry">
            <mxPoint x="79" y="210.38" as="sourcePoint" />
            <mxPoint x="119" y="210.38" as="targetPoint" />
          </mxGeometry>
        </mxCell>
        <mxCell id="530qpDRSOnJtIDgYeNtD-82" value="" style="endArrow=none;html=1;rounded=0;" parent="1" edge="1">
          <mxGeometry width="50" height="50" relative="1" as="geometry">
            <mxPoint x="376" y="302.84999999999997" as="sourcePoint" />
            <mxPoint x="416" y="302.84999999999997" as="targetPoint" />
          </mxGeometry>
        </mxCell>
        <mxCell id="530qpDRSOnJtIDgYeNtD-83" value="&lt;div&gt;&lt;font face=&quot;Century&quot;&gt;&lt;b&gt;Active LPF&lt;/b&gt;&lt;/font&gt;&lt;/div&gt;&lt;div&gt;&lt;font face=&quot;Century&quot;&gt;&lt;b&gt;&lt;i&gt;fc = &lt;/i&gt;102.30MHz&lt;br&gt;&lt;/b&gt;&lt;/font&gt;&lt;/div&gt;" style="text;html=1;align=center;verticalAlign=middle;resizable=0;points=[];autosize=1;strokeColor=none;fillColor=none;fontFamily=Helvetica;" parent="1" vertex="1">
          <mxGeometry x="174.75" y="290" width="110" height="40" as="geometry" />
        </mxCell>
        <mxCell id="530qpDRSOnJtIDgYeNtD-91" value="&lt;div style=&quot;font-size: 12px;&quot;&gt;&lt;b style=&quot;font-size: 12px;&quot;&gt;Active LPF&lt;/b&gt;&lt;/div&gt;&lt;div style=&quot;font-size: 12px;&quot;&gt;&lt;b style=&quot;font-size: 12px;&quot;&gt;&lt;i style=&quot;font-size: 12px;&quot;&gt;f&lt;sub style=&quot;font-size: 12px;&quot;&gt;c&lt;/sub&gt; &lt;/i&gt;= 14.3Hz&lt;br style=&quot;font-size: 12px;&quot;&gt;&lt;/b&gt;&lt;/div&gt;" style="text;html=1;align=center;verticalAlign=middle;resizable=0;points=[];autosize=1;strokeColor=none;fillColor=none;fontSize=12;fontFamily=Century;" parent="1" vertex="1">
          <mxGeometry x="1175.75" y="100.5" width="90" height="40" as="geometry" />
        </mxCell>
        <mxCell id="lxvawcKPhnMLxQlRj4R8-2" value="" style="pointerEvents=1;verticalLabelPosition=bottom;shadow=0;dashed=0;align=center;html=1;verticalAlign=top;shape=mxgraph.electrical.waveforms.sine_wave;" parent="1" vertex="1">
          <mxGeometry x="203" y="38" width="53" height="30" as="geometry" />
        </mxCell>
        <mxCell id="lxvawcKPhnMLxQlRj4R8-6" value="" style="pointerEvents=1;verticalLabelPosition=bottom;shadow=0;dashed=0;align=center;html=1;verticalAlign=top;shape=mxgraph.electrical.waveforms.sine_wave;" parent="1" vertex="1">
          <mxGeometry x="203" y="53" width="53" height="30" as="geometry" />
        </mxCell>
        <mxCell id="lxvawcKPhnMLxQlRj4R8-7" value="" style="pointerEvents=1;verticalLabelPosition=bottom;shadow=0;dashed=0;align=center;html=1;verticalAlign=top;shape=mxgraph.electrical.waveforms.sine_wave;" parent="1" vertex="1">
          <mxGeometry x="203" y="68" width="53" height="30" as="geometry" />
        </mxCell>
        <mxCell id="lxvawcKPhnMLxQlRj4R8-11" value="" style="endArrow=none;html=1;rounded=0;" parent="1" edge="1">
          <mxGeometry width="50" height="50" relative="1" as="geometry">
            <mxPoint x="227" y="59" as="sourcePoint" />
            <mxPoint x="235" y="48" as="targetPoint" />
          </mxGeometry>
        </mxCell>
        <mxCell id="lxvawcKPhnMLxQlRj4R8-17" value="" style="endArrow=none;html=1;rounded=0;" parent="1" edge="1">
          <mxGeometry width="50" height="50" relative="1" as="geometry">
            <mxPoint x="226" y="74" as="sourcePoint" />
            <mxPoint x="234" y="63" as="targetPoint" />
          </mxGeometry>
        </mxCell>
        <mxCell id="lxvawcKPhnMLxQlRj4R8-26" value="" style="rounded=0;whiteSpace=wrap;html=1;" parent="1" vertex="1">
          <mxGeometry x="197" y="227" width="65" height="63" as="geometry" />
        </mxCell>
        <mxCell id="lxvawcKPhnMLxQlRj4R8-27" value="" style="pointerEvents=1;verticalLabelPosition=bottom;shadow=0;dashed=0;align=center;html=1;verticalAlign=top;shape=mxgraph.electrical.waveforms.sine_wave;" parent="1" vertex="1">
          <mxGeometry x="203" y="228" width="53" height="30" as="geometry" />
        </mxCell>
        <mxCell id="lxvawcKPhnMLxQlRj4R8-28" value="" style="pointerEvents=1;verticalLabelPosition=bottom;shadow=0;dashed=0;align=center;html=1;verticalAlign=top;shape=mxgraph.electrical.waveforms.sine_wave;" parent="1" vertex="1">
          <mxGeometry x="203" y="243" width="53" height="30" as="geometry" />
        </mxCell>
        <mxCell id="lxvawcKPhnMLxQlRj4R8-29" value="" style="pointerEvents=1;verticalLabelPosition=bottom;shadow=0;dashed=0;align=center;html=1;verticalAlign=top;shape=mxgraph.electrical.waveforms.sine_wave;" parent="1" vertex="1">
          <mxGeometry x="203" y="258" width="53" height="30" as="geometry" />
        </mxCell>
        <mxCell id="lxvawcKPhnMLxQlRj4R8-30" value="" style="endArrow=none;html=1;rounded=0;" parent="1" edge="1">
          <mxGeometry width="50" height="50" relative="1" as="geometry">
            <mxPoint x="227" y="249" as="sourcePoint" />
            <mxPoint x="235" y="238" as="targetPoint" />
          </mxGeometry>
        </mxCell>
        <mxCell id="lxvawcKPhnMLxQlRj4R8-31" value="" style="endArrow=none;html=1;rounded=0;" parent="1" edge="1">
          <mxGeometry width="50" height="50" relative="1" as="geometry">
            <mxPoint x="226" y="264" as="sourcePoint" />
            <mxPoint x="234" y="253" as="targetPoint" />
          </mxGeometry>
        </mxCell>
        <mxCell id="lxvawcKPhnMLxQlRj4R8-32" value="" style="rounded=0;whiteSpace=wrap;html=1;" parent="1" vertex="1">
          <mxGeometry x="1182.5" y="39.5" width="65" height="63" as="geometry" />
        </mxCell>
        <mxCell id="lxvawcKPhnMLxQlRj4R8-33" value="" style="pointerEvents=1;verticalLabelPosition=bottom;shadow=0;dashed=0;align=center;html=1;verticalAlign=top;shape=mxgraph.electrical.waveforms.sine_wave;" parent="1" vertex="1">
          <mxGeometry x="1188.5" y="40.5" width="53" height="30" as="geometry" />
        </mxCell>
        <mxCell id="lxvawcKPhnMLxQlRj4R8-34" value="" style="pointerEvents=1;verticalLabelPosition=bottom;shadow=0;dashed=0;align=center;html=1;verticalAlign=top;shape=mxgraph.electrical.waveforms.sine_wave;" parent="1" vertex="1">
          <mxGeometry x="1188.5" y="55.5" width="53" height="30" as="geometry" />
        </mxCell>
        <mxCell id="lxvawcKPhnMLxQlRj4R8-35" value="" style="pointerEvents=1;verticalLabelPosition=bottom;shadow=0;dashed=0;align=center;html=1;verticalAlign=top;shape=mxgraph.electrical.waveforms.sine_wave;" parent="1" vertex="1">
          <mxGeometry x="1188.5" y="70.5" width="53" height="30" as="geometry" />
        </mxCell>
        <mxCell id="lxvawcKPhnMLxQlRj4R8-36" value="" style="endArrow=none;html=1;rounded=0;" parent="1" edge="1">
          <mxGeometry width="50" height="50" relative="1" as="geometry">
            <mxPoint x="1212.5" y="61.5" as="sourcePoint" />
            <mxPoint x="1220.5" y="50.5" as="targetPoint" />
          </mxGeometry>
        </mxCell>
        <mxCell id="lxvawcKPhnMLxQlRj4R8-37" value="" style="endArrow=none;html=1;rounded=0;" parent="1" edge="1">
          <mxGeometry width="50" height="50" relative="1" as="geometry">
            <mxPoint x="1211.5" y="76.5" as="sourcePoint" />
            <mxPoint x="1219.5" y="65.5" as="targetPoint" />
          </mxGeometry>
        </mxCell>
        <mxCell id="lxvawcKPhnMLxQlRj4R8-38" value="&lt;div style=&quot;font-size: 12px;&quot;&gt;&lt;b style=&quot;font-size: 12px;&quot;&gt;Active LPF&lt;/b&gt;&lt;/div&gt;&lt;div style=&quot;font-size: 12px;&quot;&gt;&lt;b style=&quot;font-size: 12px;&quot;&gt;&lt;i style=&quot;font-size: 12px;&quot;&gt;f&lt;sub style=&quot;font-size: 12px;&quot;&gt;c&lt;/sub&gt; &lt;/i&gt;= 14.3Hz&lt;br style=&quot;font-size: 12px;&quot;&gt;&lt;/b&gt;&lt;/div&gt;" style="text;html=1;align=center;verticalAlign=middle;resizable=0;points=[];autosize=1;strokeColor=none;fillColor=none;fontSize=12;fontFamily=Century;" parent="1" vertex="1">
          <mxGeometry x="1175.75" y="288.5" width="90" height="40" as="geometry" />
        </mxCell>
        <mxCell id="lxvawcKPhnMLxQlRj4R8-39" value="" style="rounded=0;whiteSpace=wrap;html=1;" parent="1" vertex="1">
          <mxGeometry x="1182.5" y="226.5" width="65" height="63" as="geometry" />
        </mxCell>
        <mxCell id="lxvawcKPhnMLxQlRj4R8-40" value="" style="pointerEvents=1;verticalLabelPosition=bottom;shadow=0;dashed=0;align=center;html=1;verticalAlign=top;shape=mxgraph.electrical.waveforms.sine_wave;" parent="1" vertex="1">
          <mxGeometry x="1188.5" y="227.5" width="53" height="30" as="geometry" />
        </mxCell>
        <mxCell id="lxvawcKPhnMLxQlRj4R8-41" value="" style="pointerEvents=1;verticalLabelPosition=bottom;shadow=0;dashed=0;align=center;html=1;verticalAlign=top;shape=mxgraph.electrical.waveforms.sine_wave;" parent="1" vertex="1">
          <mxGeometry x="1188.5" y="242.5" width="53" height="30" as="geometry" />
        </mxCell>
        <mxCell id="lxvawcKPhnMLxQlRj4R8-42" value="" style="pointerEvents=1;verticalLabelPosition=bottom;shadow=0;dashed=0;align=center;html=1;verticalAlign=top;shape=mxgraph.electrical.waveforms.sine_wave;" parent="1" vertex="1">
          <mxGeometry x="1188.5" y="257.5" width="53" height="30" as="geometry" />
        </mxCell>
        <mxCell id="lxvawcKPhnMLxQlRj4R8-43" value="" style="endArrow=none;html=1;rounded=0;" parent="1" edge="1">
          <mxGeometry width="50" height="50" relative="1" as="geometry">
            <mxPoint x="1212.5" y="248.5" as="sourcePoint" />
            <mxPoint x="1220.5" y="237.5" as="targetPoint" />
          </mxGeometry>
        </mxCell>
        <mxCell id="lxvawcKPhnMLxQlRj4R8-44" value="" style="endArrow=none;html=1;rounded=0;" parent="1" edge="1">
          <mxGeometry width="50" height="50" relative="1" as="geometry">
            <mxPoint x="1211.5" y="263.5" as="sourcePoint" />
            <mxPoint x="1219.5" y="252.5" as="targetPoint" />
          </mxGeometry>
        </mxCell>
        <mxCell id="L9CJhqhdHeU-BLgVQLnI-1" value="" style="endArrow=none;html=1;rounded=0;entryX=0;entryY=0;entryDx=0;entryDy=0;exitX=0;exitY=1;exitDx=0;exitDy=0;strokeWidth=1.5;" parent="1" source="sVo7RDJms1JuLm0rQUv_-24" target="sVo7RDJms1JuLm0rQUv_-24" edge="1">
          <mxGeometry width="50" height="50" relative="1" as="geometry">
            <mxPoint x="539" y="80" as="sourcePoint" />
            <mxPoint x="649" y="80" as="targetPoint" />
          </mxGeometry>
        </mxCell>
        <mxCell id="L9CJhqhdHeU-BLgVQLnI-3" value="" style="endArrow=none;html=1;rounded=0;entryX=0;entryY=0;entryDx=0;entryDy=0;exitX=0;exitY=1;exitDx=0;exitDy=0;strokeWidth=1.5;" parent="1" edge="1">
          <mxGeometry width="50" height="50" relative="1" as="geometry">
            <mxPoint x="542" y="222.45999999999998" as="sourcePoint" />
            <mxPoint x="632" y="222.45999999999998" as="targetPoint" />
          </mxGeometry>
        </mxCell>
        <mxCell id="L9CJhqhdHeU-BLgVQLnI-5" value="" style="shape=curlyBracket;whiteSpace=wrap;html=1;rounded=1;labelPosition=left;verticalLabelPosition=middle;align=right;verticalAlign=middle;rotation=-90;size=0;" parent="1" vertex="1">
          <mxGeometry x="729.57" y="255.7" width="8.43" height="94.45" as="geometry" />
        </mxCell>
        <mxCell id="L9CJhqhdHeU-BLgVQLnI-6" value="&lt;div&gt;&lt;font face=&quot;Century&quot;&gt;&lt;b&gt;DC cut capacitor &amp;amp; HPF&lt;br&gt;&lt;/b&gt;&lt;/font&gt;&lt;/div&gt;&lt;div&gt;&lt;font face=&quot;Century&quot;&gt;&lt;b&gt;&lt;i&gt;fc = &lt;/i&gt;3.12kHz&lt;br&gt;&lt;/b&gt;&lt;/font&gt;&lt;/div&gt;" style="text;html=1;align=center;verticalAlign=middle;resizable=0;points=[];autosize=1;strokeColor=none;fillColor=none;fontFamily=Helvetica;" parent="1" vertex="1">
          <mxGeometry x="653.79" y="305" width="160" height="40" as="geometry" />
        </mxCell>
        <mxCell id="RxnZcE_f6Mh04UVKwM8g-6" value="" style="pointerEvents=1;verticalLabelPosition=bottom;shadow=0;dashed=0;align=center;html=1;verticalAlign=top;shape=mxgraph.electrical.capacitors.capacitor_1;fontFamily=Century;spacingTop=-7;" parent="1" vertex="1">
          <mxGeometry x="525" y="393.39" width="80" height="40" as="geometry" />
        </mxCell>
        <mxCell id="RxnZcE_f6Mh04UVKwM8g-7" value="" style="rounded=0;whiteSpace=wrap;html=1;fontFamily=Helvetica;fillColor=#CCCCCC;strokeColor=#000000;fontColor=#ffffff;rotation=90;strokeWidth=2;" parent="1" vertex="1">
          <mxGeometry x="414" y="462.19" width="120" height="90" as="geometry" />
        </mxCell>
        <mxCell id="RxnZcE_f6Mh04UVKwM8g-8" value="" style="rounded=0;whiteSpace=wrap;html=1;fontFamily=Helvetica;fillColor=#E3D786;rotation=0;fontColor=#000000;strokeColor=#B09500;" parent="1" vertex="1">
          <mxGeometry x="447" y="447.19" width="20" height="120" as="geometry" />
        </mxCell>
        <mxCell id="RxnZcE_f6Mh04UVKwM8g-9" value="" style="rounded=0;whiteSpace=wrap;html=1;fontFamily=Helvetica;fillColor=#E3D786;rotation=0;fontColor=#000000;strokeColor=#B09500;" parent="1" vertex="1">
          <mxGeometry x="482" y="447.19" width="20" height="120" as="geometry" />
        </mxCell>
        <mxCell id="RxnZcE_f6Mh04UVKwM8g-10" value="" style="shape=waypoint;sketch=0;fillStyle=solid;size=6;pointerEvents=1;points=[];fillColor=none;resizable=0;rotatable=0;perimeter=centerPerimeter;snapToPoint=1;verticalAlign=top;spacingBottom=0;spacingTop=-5;fontFamily=Verdana;fontSize=12;" parent="1" vertex="1">
          <mxGeometry x="437" y="393.19" width="40" height="40" as="geometry" />
        </mxCell>
        <mxCell id="RxnZcE_f6Mh04UVKwM8g-23" value="" style="pointerEvents=1;verticalLabelPosition=bottom;shadow=0;dashed=0;align=center;html=1;verticalAlign=top;shape=mxgraph.electrical.capacitors.capacitor_1;fontFamily=Century;spacingTop=-7;" parent="1" vertex="1">
          <mxGeometry x="525" y="583.69" width="80" height="40" as="geometry" />
        </mxCell>
        <mxCell id="RxnZcE_f6Mh04UVKwM8g-50" value="" style="verticalLabelPosition=bottom;verticalAlign=top;html=1;shape=mxgraph.basic.acute_triangle;dx=0.5;rotation=90;" parent="1" vertex="1">
          <mxGeometry x="319" y="378.19" width="72.5" height="70" as="geometry" />
        </mxCell>
        <mxCell id="RxnZcE_f6Mh04UVKwM8g-51" value="" style="endArrow=none;html=1;rounded=0;exitX=0.5;exitY=1;exitDx=0;exitDy=0;exitPerimeter=0;" parent="1" source="RxnZcE_f6Mh04UVKwM8g-55" target="RxnZcE_f6Mh04UVKwM8g-10" edge="1">
          <mxGeometry width="50" height="50" relative="1" as="geometry">
            <mxPoint x="370.25" y="399.44" as="sourcePoint" />
            <mxPoint x="425.25" y="412.94" as="targetPoint" />
          </mxGeometry>
        </mxCell>
        <mxCell id="RxnZcE_f6Mh04UVKwM8g-52" value="" style="endArrow=none;html=1;rounded=0;entryX=0;entryY=0;entryDx=36.25;entryDy=0;entryPerimeter=0;exitX=1;exitY=0.5;exitDx=0;exitDy=0;" parent="1" source="RxnZcE_f6Mh04UVKwM8g-111" target="RxnZcE_f6Mh04UVKwM8g-55" edge="1">
          <mxGeometry width="50" height="50" relative="1" as="geometry">
            <mxPoint x="261" y="413" as="sourcePoint" />
            <mxPoint x="305.25" y="399.44" as="targetPoint" />
          </mxGeometry>
        </mxCell>
        <mxCell id="RxnZcE_f6Mh04UVKwM8g-55" value="" style="verticalLabelPosition=bottom;verticalAlign=top;html=1;shape=mxgraph.basic.acute_triangle;dx=0.5;rotation=-90;" parent="1" vertex="1">
          <mxGeometry x="319" y="378.19" width="72.5" height="70" as="geometry" />
        </mxCell>
        <mxCell id="RxnZcE_f6Mh04UVKwM8g-56" value="" style="endArrow=none;html=1;rounded=0;exitX=0;exitY=0;exitDx=54.375;exitDy=35;exitPerimeter=0;entryX=0.5;entryY=1;entryDx=0;entryDy=0;entryPerimeter=0;" parent="1" source="RxnZcE_f6Mh04UVKwM8g-50" target="RxnZcE_f6Mh04UVKwM8g-55" edge="1">
          <mxGeometry width="50" height="50" relative="1" as="geometry">
            <mxPoint x="399.63" y="436.945" as="sourcePoint" />
            <mxPoint x="550.88" y="453.82" as="targetPoint" />
          </mxGeometry>
        </mxCell>
        <mxCell id="RxnZcE_f6Mh04UVKwM8g-57" value="" style="endArrow=none;html=1;rounded=0;exitX=0;exitY=0;exitDx=54.375;exitDy=35;exitPerimeter=0;entryX=0.5;entryY=1;entryDx=0;entryDy=0;entryPerimeter=0;" parent="1" source="RxnZcE_f6Mh04UVKwM8g-55" target="RxnZcE_f6Mh04UVKwM8g-55" edge="1">
          <mxGeometry width="50" height="50" relative="1" as="geometry">
            <mxPoint x="382.75" y="359.44" as="sourcePoint" />
            <mxPoint x="425.25" y="386.94" as="targetPoint" />
          </mxGeometry>
        </mxCell>
        <mxCell id="RxnZcE_f6Mh04UVKwM8g-58" value="&lt;b&gt;&lt;font face=&quot;Century&quot;&gt;Analog Switch&lt;/font&gt;&lt;/b&gt;" style="text;html=1;align=center;verticalAlign=middle;resizable=0;points=[];autosize=1;strokeColor=none;fillColor=none;fontFamily=Helvetica;" parent="1" vertex="1">
          <mxGeometry x="300.25" y="442.5" width="110" height="30" as="geometry" />
        </mxCell>
        <mxCell id="RxnZcE_f6Mh04UVKwM8g-64" value="" style="endArrow=none;html=1;rounded=0;exitX=0.438;exitY=0.582;exitDx=0;exitDy=0;exitPerimeter=0;entryX=0.5;entryY=0;entryDx=0;entryDy=0;" parent="1" source="RxnZcE_f6Mh04UVKwM8g-10" target="RxnZcE_f6Mh04UVKwM8g-8" edge="1">
          <mxGeometry width="50" height="50" relative="1" as="geometry">
            <mxPoint x="419" y="423.5" as="sourcePoint" />
            <mxPoint x="463" y="423.5" as="targetPoint" />
          </mxGeometry>
        </mxCell>
        <mxCell id="RxnZcE_f6Mh04UVKwM8g-65" value="" style="endArrow=none;html=1;rounded=0;exitX=0.562;exitY=0.512;exitDx=0;exitDy=0;exitPerimeter=0;entryX=0;entryY=0.5;entryDx=0;entryDy=0;entryPerimeter=0;" parent="1" source="RxnZcE_f6Mh04UVKwM8g-10" target="RxnZcE_f6Mh04UVKwM8g-6" edge="1">
          <mxGeometry width="50" height="50" relative="1" as="geometry">
            <mxPoint x="452" y="423.5" as="sourcePoint" />
            <mxPoint x="562" y="413.5" as="targetPoint" />
          </mxGeometry>
        </mxCell>
        <mxCell id="RxnZcE_f6Mh04UVKwM8g-66" value="" style="shape=waypoint;sketch=0;fillStyle=solid;size=6;pointerEvents=1;points=[];fillColor=none;resizable=0;rotatable=0;perimeter=centerPerimeter;snapToPoint=1;verticalAlign=top;spacingBottom=0;spacingTop=-5;fontFamily=Verdana;fontSize=12;" parent="1" vertex="1">
          <mxGeometry x="472" y="583.19" width="40" height="40" as="geometry" />
        </mxCell>
        <mxCell id="RxnZcE_f6Mh04UVKwM8g-67" value="" style="verticalLabelPosition=bottom;verticalAlign=top;html=1;shape=mxgraph.basic.acute_triangle;dx=0.5;rotation=90;" parent="1" vertex="1">
          <mxGeometry x="319" y="568.19" width="72.5" height="70" as="geometry" />
        </mxCell>
        <mxCell id="RxnZcE_f6Mh04UVKwM8g-68" value="" style="endArrow=none;html=1;rounded=0;exitX=0.5;exitY=1;exitDx=0;exitDy=0;exitPerimeter=0;entryX=0.141;entryY=0.927;entryDx=0;entryDy=0;entryPerimeter=0;" parent="1" source="RxnZcE_f6Mh04UVKwM8g-72" target="RxnZcE_f6Mh04UVKwM8g-66" edge="1">
          <mxGeometry width="50" height="50" relative="1" as="geometry">
            <mxPoint x="370.25" y="589.44" as="sourcePoint" />
            <mxPoint x="425.25" y="602.94" as="targetPoint" />
          </mxGeometry>
        </mxCell>
        <mxCell id="RxnZcE_f6Mh04UVKwM8g-72" value="" style="verticalLabelPosition=bottom;verticalAlign=top;html=1;shape=mxgraph.basic.acute_triangle;dx=0.5;rotation=-90;" parent="1" vertex="1">
          <mxGeometry x="319" y="568.19" width="72.5" height="70" as="geometry" />
        </mxCell>
        <mxCell id="RxnZcE_f6Mh04UVKwM8g-73" value="" style="endArrow=none;html=1;rounded=0;exitX=0;exitY=0;exitDx=54.375;exitDy=35;exitPerimeter=0;entryX=0.5;entryY=1;entryDx=0;entryDy=0;entryPerimeter=0;" parent="1" source="RxnZcE_f6Mh04UVKwM8g-67" target="RxnZcE_f6Mh04UVKwM8g-72" edge="1">
          <mxGeometry width="50" height="50" relative="1" as="geometry">
            <mxPoint x="399.63" y="626.9449999999999" as="sourcePoint" />
            <mxPoint x="550.88" y="643.8199999999999" as="targetPoint" />
          </mxGeometry>
        </mxCell>
        <mxCell id="RxnZcE_f6Mh04UVKwM8g-74" value="" style="endArrow=none;html=1;rounded=0;exitX=0;exitY=0;exitDx=54.375;exitDy=35;exitPerimeter=0;entryX=0.5;entryY=1;entryDx=0;entryDy=0;entryPerimeter=0;" parent="1" source="RxnZcE_f6Mh04UVKwM8g-72" target="RxnZcE_f6Mh04UVKwM8g-72" edge="1">
          <mxGeometry width="50" height="50" relative="1" as="geometry">
            <mxPoint x="382.75" y="549.44" as="sourcePoint" />
            <mxPoint x="425.25" y="576.94" as="targetPoint" />
          </mxGeometry>
        </mxCell>
        <mxCell id="RxnZcE_f6Mh04UVKwM8g-75" value="&lt;b&gt;&lt;font face=&quot;Century&quot;&gt;Analog Switch&lt;/font&gt;&lt;/b&gt;" style="text;html=1;align=center;verticalAlign=middle;resizable=0;points=[];autosize=1;strokeColor=none;fillColor=none;fontFamily=Helvetica;" parent="1" vertex="1">
          <mxGeometry x="300.25" y="633.5" width="110" height="30" as="geometry" />
        </mxCell>
        <mxCell id="RxnZcE_f6Mh04UVKwM8g-77" value="" style="endArrow=none;html=1;rounded=0;exitX=0.5;exitY=1;exitDx=0;exitDy=0;" parent="1" source="RxnZcE_f6Mh04UVKwM8g-9" target="RxnZcE_f6Mh04UVKwM8g-66" edge="1">
          <mxGeometry width="50" height="50" relative="1" as="geometry">
            <mxPoint x="494" y="607.5" as="sourcePoint" />
            <mxPoint x="454" y="637.5" as="targetPoint" />
          </mxGeometry>
        </mxCell>
        <mxCell id="RxnZcE_f6Mh04UVKwM8g-78" value="" style="endArrow=none;html=1;rounded=0;exitX=0.542;exitY=0.561;exitDx=0;exitDy=0;exitPerimeter=0;entryX=0;entryY=0.5;entryDx=0;entryDy=0;entryPerimeter=0;" parent="1" source="RxnZcE_f6Mh04UVKwM8g-66" target="RxnZcE_f6Mh04UVKwM8g-23" edge="1">
          <mxGeometry width="50" height="50" relative="1" as="geometry">
            <mxPoint x="492" y="614.5699999999999" as="sourcePoint" />
            <mxPoint x="552" y="603.5" as="targetPoint" />
          </mxGeometry>
        </mxCell>
        <mxCell id="RxnZcE_f6Mh04UVKwM8g-107" value="" style="endArrow=none;html=1;rounded=0;entryX=0;entryY=0;entryDx=0;entryDy=0;exitX=0;exitY=1;exitDx=0;exitDy=0;strokeWidth=1.5;" parent="1" source="RxnZcE_f6Mh04UVKwM8g-7" target="RxnZcE_f6Mh04UVKwM8g-7" edge="1">
          <mxGeometry width="50" height="50" relative="1" as="geometry">
            <mxPoint x="426" y="424.5" as="sourcePoint" />
            <mxPoint x="536" y="424.5" as="targetPoint" />
          </mxGeometry>
        </mxCell>
        <mxCell id="RxnZcE_f6Mh04UVKwM8g-108" value="" style="endArrow=none;html=1;rounded=0;entryX=0;entryY=0;entryDx=0;entryDy=0;exitX=0;exitY=1;exitDx=0;exitDy=0;strokeWidth=1.5;" parent="1" edge="1">
          <mxGeometry width="50" height="50" relative="1" as="geometry">
            <mxPoint x="429" y="566.96" as="sourcePoint" />
            <mxPoint x="519" y="566.96" as="targetPoint" />
          </mxGeometry>
        </mxCell>
        <mxCell id="RxnZcE_f6Mh04UVKwM8g-111" value="&lt;b&gt;&lt;font face=&quot;Times New Roman&quot;&gt;32.768 kHz&lt;/font&gt;&lt;/b&gt;" style="ellipse;whiteSpace=wrap;html=1;aspect=fixed;verticalAlign=bottom;spacing=-24;" parent="1" vertex="1">
          <mxGeometry x="220" y="382.99" width="60.4" height="60.4" as="geometry" />
        </mxCell>
        <mxCell id="RxnZcE_f6Mh04UVKwM8g-112" value="" style="pointerEvents=1;verticalLabelPosition=bottom;shadow=0;dashed=0;align=center;html=1;verticalAlign=top;shape=mxgraph.electrical.waveforms.sine_wave;" parent="1" vertex="1">
          <mxGeometry x="236.4" y="400.54" width="28" height="25.31" as="geometry" />
        </mxCell>
        <mxCell id="RxnZcE_f6Mh04UVKwM8g-113" value="" style="endArrow=none;html=1;rounded=0;entryX=0;entryY=0;entryDx=36.25;entryDy=0;entryPerimeter=0;exitX=1;exitY=0.5;exitDx=0;exitDy=0;" parent="1" target="RxnZcE_f6Mh04UVKwM8g-72" edge="1">
          <mxGeometry width="50" height="50" relative="1" as="geometry">
            <mxPoint x="280.59999999999786" y="603.2" as="sourcePoint" />
            <mxPoint x="303" y="602.81" as="targetPoint" />
          </mxGeometry>
        </mxCell>
        <mxCell id="RxnZcE_f6Mh04UVKwM8g-116" value="" style="endArrow=none;html=1;rounded=0;exitDx=0;exitDy=0;exitPerimeter=0;startArrow=none;entryX=0;entryY=0.5;entryDx=0;entryDy=0;exitX=1;exitY=0.5;" parent="1" source="RxnZcE_f6Mh04UVKwM8g-23" target="RxnZcE_f6Mh04UVKwM8g-117" edge="1">
          <mxGeometry width="50" height="50" relative="1" as="geometry">
            <mxPoint x="631" y="603.69" as="sourcePoint" />
            <mxPoint x="636" y="498.69" as="targetPoint" />
          </mxGeometry>
        </mxCell>
        <mxCell id="RxnZcE_f6Mh04UVKwM8g-117" value="&lt;b&gt;Signal Proccesing Circuit&lt;br&gt;&lt;/b&gt;" style="rounded=0;whiteSpace=wrap;html=1;labelBackgroundColor=none;fontFamily=Century;fontSize=18;fillColor=none;" parent="1" vertex="1">
          <mxGeometry x="618.5" y="569" width="120" height="69" as="geometry" />
        </mxCell>
        <mxCell id="RxnZcE_f6Mh04UVKwM8g-120" value="" style="shape=mxgraph.arrows2.arrow;verticalLabelPosition=bottom;shadow=0;dashed=0;align=center;html=1;verticalAlign=top;strokeWidth=1;dy=0;dx=10;notch=0;labelBackgroundColor=none;fontFamily=Helvetica;fontSize=18;fillColor=none;" parent="1" vertex="1">
          <mxGeometry x="772" y="588.9000000000001" width="93" height="30" as="geometry" />
        </mxCell>
        <mxCell id="RxnZcE_f6Mh04UVKwM8g-121" value="&lt;font face=&quot;Century&quot;&gt;&lt;b&gt;Output2&lt;/b&gt;&lt;/font&gt;" style="text;html=1;align=center;verticalAlign=middle;resizable=0;points=[];autosize=1;strokeColor=none;fillColor=none;fontSize=18;fontFamily=Helvetica;" parent="1" vertex="1">
          <mxGeometry x="765" y="582.0900000000001" width="100" height="40" as="geometry" />
        </mxCell>
        <mxCell id="RxnZcE_f6Mh04UVKwM8g-122" value="" style="endArrow=none;html=1;rounded=0;exitX=1;exitY=0.5;exitDx=0;exitDy=0;entryX=0;entryY=0.5;entryDx=0;entryDy=0;entryPerimeter=0;" parent="1" source="RxnZcE_f6Mh04UVKwM8g-117" target="RxnZcE_f6Mh04UVKwM8g-120" edge="1">
          <mxGeometry width="50" height="50" relative="1" as="geometry">
            <mxPoint x="745.5" y="605.4000000000001" as="sourcePoint" />
            <mxPoint x="779" y="711.21" as="targetPoint" />
            <Array as="points" />
          </mxGeometry>
        </mxCell>
        <mxCell id="RxnZcE_f6Mh04UVKwM8g-123" value="" style="endArrow=none;html=1;rounded=0;exitDx=0;exitDy=0;exitPerimeter=0;startArrow=none;entryX=0;entryY=0.5;entryDx=0;entryDy=0;exitX=0.992;exitY=0.503;" parent="1" source="RxnZcE_f6Mh04UVKwM8g-6" target="RxnZcE_f6Mh04UVKwM8g-124" edge="1">
          <mxGeometry width="50" height="50" relative="1" as="geometry">
            <mxPoint x="612" y="414.19" as="sourcePoint" />
            <mxPoint x="643" y="308.88" as="targetPoint" />
          </mxGeometry>
        </mxCell>
        <mxCell id="RxnZcE_f6Mh04UVKwM8g-124" value="&lt;b&gt;Signal Proccesing Circuit&lt;br&gt;&lt;/b&gt;" style="rounded=0;whiteSpace=wrap;html=1;labelBackgroundColor=none;fontFamily=Century;fontSize=18;fillColor=none;" parent="1" vertex="1">
          <mxGeometry x="618.5" y="379.19" width="120" height="69" as="geometry" />
        </mxCell>
        <mxCell id="RxnZcE_f6Mh04UVKwM8g-125" value="" style="shape=mxgraph.arrows2.arrow;verticalLabelPosition=bottom;shadow=0;dashed=0;align=center;html=1;verticalAlign=top;strokeWidth=1;dy=0;dx=10;notch=0;labelBackgroundColor=none;fontFamily=Helvetica;fontSize=18;fillColor=none;" parent="1" vertex="1">
          <mxGeometry x="772" y="399.0900000000001" width="93" height="30" as="geometry" />
        </mxCell>
        <mxCell id="RxnZcE_f6Mh04UVKwM8g-126" value="&lt;font face=&quot;Century&quot;&gt;&lt;b&gt;Output1&lt;/b&gt;&lt;/font&gt;" style="text;html=1;align=center;verticalAlign=middle;resizable=0;points=[];autosize=1;strokeColor=none;fillColor=none;fontSize=18;fontFamily=Helvetica;" parent="1" vertex="1">
          <mxGeometry x="765" y="391.28000000000014" width="100" height="40" as="geometry" />
        </mxCell>
        <mxCell id="RxnZcE_f6Mh04UVKwM8g-127" value="" style="endArrow=none;html=1;rounded=0;exitX=1;exitY=0.5;exitDx=0;exitDy=0;entryX=0;entryY=0.5;entryDx=0;entryDy=0;entryPerimeter=0;" parent="1" source="RxnZcE_f6Mh04UVKwM8g-124" target="RxnZcE_f6Mh04UVKwM8g-125" edge="1">
          <mxGeometry width="50" height="50" relative="1" as="geometry">
            <mxPoint x="745.5" y="415.5900000000001" as="sourcePoint" />
            <mxPoint x="779" y="521.4000000000001" as="targetPoint" />
            <Array as="points" />
          </mxGeometry>
        </mxCell>
        <mxCell id="RxnZcE_f6Mh04UVKwM8g-129" value="&lt;b&gt;&lt;font face=&quot;Times New Roman&quot;&gt;25 MHz&lt;/font&gt;&lt;/b&gt;" style="ellipse;whiteSpace=wrap;html=1;aspect=fixed;verticalAlign=bottom;spacing=-24;" parent="1" vertex="1">
          <mxGeometry x="220" y="572.99" width="60.4" height="60.4" as="geometry" />
        </mxCell>
        <mxCell id="RxnZcE_f6Mh04UVKwM8g-130" value="" style="pointerEvents=1;verticalLabelPosition=bottom;shadow=0;dashed=0;align=center;html=1;verticalAlign=top;shape=mxgraph.electrical.waveforms.sine_wave;" parent="1" vertex="1">
          <mxGeometry x="236.4" y="590.54" width="28" height="25.31" as="geometry" />
        </mxCell>
        <mxCell id="RxnZcE_f6Mh04UVKwM8g-131" value="" style="pointerEvents=1;verticalLabelPosition=bottom;shadow=0;dashed=0;align=center;html=1;verticalAlign=top;shape=mxgraph.electrical.capacitors.capacitor_1;fontFamily=Century;spacingTop=-7;" parent="1" vertex="1">
          <mxGeometry x="525" y="745.2" width="80" height="40" as="geometry" />
        </mxCell>
        <mxCell id="RxnZcE_f6Mh04UVKwM8g-132" value="" style="rounded=0;whiteSpace=wrap;html=1;fontFamily=Helvetica;fillColor=#CCCCCC;strokeColor=#000000;fontColor=#ffffff;rotation=90;strokeWidth=2;" parent="1" vertex="1">
          <mxGeometry x="414" y="814" width="120" height="90" as="geometry" />
        </mxCell>
        <mxCell id="RxnZcE_f6Mh04UVKwM8g-133" value="" style="rounded=0;whiteSpace=wrap;html=1;fontFamily=Helvetica;fillColor=#E3D786;rotation=0;fontColor=#000000;strokeColor=#B09500;" parent="1" vertex="1">
          <mxGeometry x="447" y="799" width="20" height="120" as="geometry" />
        </mxCell>
        <mxCell id="RxnZcE_f6Mh04UVKwM8g-134" value="" style="rounded=0;whiteSpace=wrap;html=1;fontFamily=Helvetica;fillColor=#E3D786;rotation=0;fontColor=#000000;strokeColor=#B09500;" parent="1" vertex="1">
          <mxGeometry x="482" y="799" width="20" height="120" as="geometry" />
        </mxCell>
        <mxCell id="RxnZcE_f6Mh04UVKwM8g-135" value="" style="shape=waypoint;sketch=0;fillStyle=solid;size=6;pointerEvents=1;points=[];fillColor=none;resizable=0;rotatable=0;perimeter=centerPerimeter;snapToPoint=1;verticalAlign=top;spacingBottom=0;spacingTop=-5;fontFamily=Verdana;fontSize=12;" parent="1" vertex="1">
          <mxGeometry x="437" y="745" width="40" height="40" as="geometry" />
        </mxCell>
        <mxCell id="RxnZcE_f6Mh04UVKwM8g-136" value="" style="pointerEvents=1;verticalLabelPosition=bottom;shadow=0;dashed=0;align=center;html=1;verticalAlign=top;shape=mxgraph.electrical.capacitors.capacitor_1;fontFamily=Century;spacingTop=-7;" parent="1" vertex="1">
          <mxGeometry x="525" y="935.5" width="80" height="40" as="geometry" />
        </mxCell>
        <mxCell id="RxnZcE_f6Mh04UVKwM8g-137" value="" style="verticalLabelPosition=bottom;verticalAlign=top;html=1;shape=mxgraph.basic.acute_triangle;dx=0.5;rotation=90;" parent="1" vertex="1">
          <mxGeometry x="319" y="730" width="72.5" height="70" as="geometry" />
        </mxCell>
        <mxCell id="RxnZcE_f6Mh04UVKwM8g-138" value="" style="endArrow=none;html=1;rounded=0;exitX=0.5;exitY=1;exitDx=0;exitDy=0;exitPerimeter=0;" parent="1" source="RxnZcE_f6Mh04UVKwM8g-140" target="RxnZcE_f6Mh04UVKwM8g-135" edge="1">
          <mxGeometry width="50" height="50" relative="1" as="geometry">
            <mxPoint x="370.25" y="751.25" as="sourcePoint" />
            <mxPoint x="425.25" y="764.75" as="targetPoint" />
          </mxGeometry>
        </mxCell>
        <mxCell id="RxnZcE_f6Mh04UVKwM8g-139" value="" style="endArrow=none;html=1;rounded=0;entryX=0;entryY=0;entryDx=36.25;entryDy=0;entryPerimeter=0;exitX=1;exitY=0.5;exitDx=0;exitDy=0;" parent="1" source="RxnZcE_f6Mh04UVKwM8g-157" target="RxnZcE_f6Mh04UVKwM8g-140" edge="1">
          <mxGeometry width="50" height="50" relative="1" as="geometry">
            <mxPoint x="261" y="764.81" as="sourcePoint" />
            <mxPoint x="305.25" y="751.25" as="targetPoint" />
          </mxGeometry>
        </mxCell>
        <mxCell id="RxnZcE_f6Mh04UVKwM8g-140" value="" style="verticalLabelPosition=bottom;verticalAlign=top;html=1;shape=mxgraph.basic.acute_triangle;dx=0.5;rotation=-90;" parent="1" vertex="1">
          <mxGeometry x="319" y="730" width="72.5" height="70" as="geometry" />
        </mxCell>
        <mxCell id="RxnZcE_f6Mh04UVKwM8g-141" value="" style="endArrow=none;html=1;rounded=0;exitX=0;exitY=0;exitDx=54.375;exitDy=35;exitPerimeter=0;entryX=0.5;entryY=1;entryDx=0;entryDy=0;entryPerimeter=0;" parent="1" source="RxnZcE_f6Mh04UVKwM8g-137" target="RxnZcE_f6Mh04UVKwM8g-140" edge="1">
          <mxGeometry width="50" height="50" relative="1" as="geometry">
            <mxPoint x="399.63" y="788.755" as="sourcePoint" />
            <mxPoint x="550.88" y="805.63" as="targetPoint" />
          </mxGeometry>
        </mxCell>
        <mxCell id="RxnZcE_f6Mh04UVKwM8g-142" value="" style="endArrow=none;html=1;rounded=0;exitX=0;exitY=0;exitDx=54.375;exitDy=35;exitPerimeter=0;entryX=0.5;entryY=1;entryDx=0;entryDy=0;entryPerimeter=0;" parent="1" source="RxnZcE_f6Mh04UVKwM8g-140" target="RxnZcE_f6Mh04UVKwM8g-140" edge="1">
          <mxGeometry width="50" height="50" relative="1" as="geometry">
            <mxPoint x="382.75" y="711.25" as="sourcePoint" />
            <mxPoint x="425.25" y="738.75" as="targetPoint" />
          </mxGeometry>
        </mxCell>
        <mxCell id="RxnZcE_f6Mh04UVKwM8g-143" value="&lt;b&gt;&lt;font face=&quot;Century&quot;&gt;Analog Switch&lt;/font&gt;&lt;/b&gt;" style="text;html=1;align=center;verticalAlign=middle;resizable=0;points=[];autosize=1;strokeColor=none;fillColor=none;fontFamily=Helvetica;" parent="1" vertex="1">
          <mxGeometry x="300.25" y="794.31" width="110" height="30" as="geometry" />
        </mxCell>
        <mxCell id="RxnZcE_f6Mh04UVKwM8g-144" value="" style="endArrow=none;html=1;rounded=0;exitX=0.438;exitY=0.582;exitDx=0;exitDy=0;exitPerimeter=0;entryX=0.5;entryY=0;entryDx=0;entryDy=0;" parent="1" source="RxnZcE_f6Mh04UVKwM8g-135" target="RxnZcE_f6Mh04UVKwM8g-133" edge="1">
          <mxGeometry width="50" height="50" relative="1" as="geometry">
            <mxPoint x="419" y="775.31" as="sourcePoint" />
            <mxPoint x="463" y="775.31" as="targetPoint" />
          </mxGeometry>
        </mxCell>
        <mxCell id="RxnZcE_f6Mh04UVKwM8g-145" value="" style="endArrow=none;html=1;rounded=0;exitX=0.562;exitY=0.512;exitDx=0;exitDy=0;exitPerimeter=0;entryX=0;entryY=0.5;entryDx=0;entryDy=0;entryPerimeter=0;" parent="1" source="RxnZcE_f6Mh04UVKwM8g-135" target="RxnZcE_f6Mh04UVKwM8g-131" edge="1">
          <mxGeometry width="50" height="50" relative="1" as="geometry">
            <mxPoint x="452" y="775.31" as="sourcePoint" />
            <mxPoint x="562" y="765.31" as="targetPoint" />
          </mxGeometry>
        </mxCell>
        <mxCell id="RxnZcE_f6Mh04UVKwM8g-146" value="" style="shape=waypoint;sketch=0;fillStyle=solid;size=6;pointerEvents=1;points=[];fillColor=none;resizable=0;rotatable=0;perimeter=centerPerimeter;snapToPoint=1;verticalAlign=top;spacingBottom=0;spacingTop=-5;fontFamily=Verdana;fontSize=12;" parent="1" vertex="1">
          <mxGeometry x="472" y="935" width="40" height="40" as="geometry" />
        </mxCell>
        <mxCell id="RxnZcE_f6Mh04UVKwM8g-153" value="" style="endArrow=none;html=1;rounded=0;exitX=0.5;exitY=1;exitDx=0;exitDy=0;" parent="1" source="RxnZcE_f6Mh04UVKwM8g-134" target="RxnZcE_f6Mh04UVKwM8g-146" edge="1">
          <mxGeometry width="50" height="50" relative="1" as="geometry">
            <mxPoint x="494" y="959.31" as="sourcePoint" />
            <mxPoint x="454" y="989.31" as="targetPoint" />
          </mxGeometry>
        </mxCell>
        <mxCell id="RxnZcE_f6Mh04UVKwM8g-154" value="" style="endArrow=none;html=1;rounded=0;exitX=0.542;exitY=0.561;exitDx=0;exitDy=0;exitPerimeter=0;entryX=0;entryY=0.5;entryDx=0;entryDy=0;entryPerimeter=0;" parent="1" source="RxnZcE_f6Mh04UVKwM8g-146" target="RxnZcE_f6Mh04UVKwM8g-136" edge="1">
          <mxGeometry width="50" height="50" relative="1" as="geometry">
            <mxPoint x="492" y="966.3799999999999" as="sourcePoint" />
            <mxPoint x="552" y="955.31" as="targetPoint" />
          </mxGeometry>
        </mxCell>
        <mxCell id="RxnZcE_f6Mh04UVKwM8g-155" value="" style="endArrow=none;html=1;rounded=0;entryX=0;entryY=0;entryDx=0;entryDy=0;exitX=0;exitY=1;exitDx=0;exitDy=0;strokeWidth=1.5;" parent="1" source="RxnZcE_f6Mh04UVKwM8g-132" target="RxnZcE_f6Mh04UVKwM8g-132" edge="1">
          <mxGeometry width="50" height="50" relative="1" as="geometry">
            <mxPoint x="426" y="776.31" as="sourcePoint" />
            <mxPoint x="536" y="776.31" as="targetPoint" />
          </mxGeometry>
        </mxCell>
        <mxCell id="RxnZcE_f6Mh04UVKwM8g-156" value="" style="endArrow=none;html=1;rounded=0;entryX=0;entryY=0;entryDx=0;entryDy=0;exitX=0;exitY=1;exitDx=0;exitDy=0;strokeWidth=1.5;" parent="1" edge="1">
          <mxGeometry width="50" height="50" relative="1" as="geometry">
            <mxPoint x="429" y="918.77" as="sourcePoint" />
            <mxPoint x="519" y="918.77" as="targetPoint" />
          </mxGeometry>
        </mxCell>
        <mxCell id="RxnZcE_f6Mh04UVKwM8g-157" value="&lt;b&gt;&lt;font face=&quot;Times New Roman&quot;&gt;32.768 kHz&lt;/font&gt;&lt;/b&gt;" style="ellipse;whiteSpace=wrap;html=1;aspect=fixed;verticalAlign=bottom;spacing=-24;" parent="1" vertex="1">
          <mxGeometry x="220" y="734.8" width="60.4" height="60.4" as="geometry" />
        </mxCell>
        <mxCell id="RxnZcE_f6Mh04UVKwM8g-158" value="" style="pointerEvents=1;verticalLabelPosition=bottom;shadow=0;dashed=0;align=center;html=1;verticalAlign=top;shape=mxgraph.electrical.waveforms.sine_wave;" parent="1" vertex="1">
          <mxGeometry x="236.4" y="752.35" width="28" height="25.31" as="geometry" />
        </mxCell>
        <mxCell id="RxnZcE_f6Mh04UVKwM8g-160" value="" style="endArrow=none;html=1;rounded=0;exitDx=0;exitDy=0;exitPerimeter=0;startArrow=none;entryX=0;entryY=0.5;entryDx=0;entryDy=0;exitX=1;exitY=0.5;" parent="1" source="RxnZcE_f6Mh04UVKwM8g-136" target="RxnZcE_f6Mh04UVKwM8g-161" edge="1">
          <mxGeometry width="50" height="50" relative="1" as="geometry">
            <mxPoint x="631" y="955.5" as="sourcePoint" />
            <mxPoint x="636" y="850.5" as="targetPoint" />
          </mxGeometry>
        </mxCell>
        <mxCell id="RxnZcE_f6Mh04UVKwM8g-161" value="&lt;b&gt;Signal Proccesing Circuit&lt;br&gt;&lt;/b&gt;" style="rounded=0;whiteSpace=wrap;html=1;labelBackgroundColor=none;fontFamily=Century;fontSize=18;fillColor=none;" parent="1" vertex="1">
          <mxGeometry x="618.5" y="920.81" width="120" height="69" as="geometry" />
        </mxCell>
        <mxCell id="RxnZcE_f6Mh04UVKwM8g-162" value="" style="shape=mxgraph.arrows2.arrow;verticalLabelPosition=bottom;shadow=0;dashed=0;align=center;html=1;verticalAlign=top;strokeWidth=1;dy=0;dx=10;notch=0;labelBackgroundColor=none;fontFamily=Helvetica;fontSize=18;fillColor=none;" parent="1" vertex="1">
          <mxGeometry x="772" y="940.71" width="93" height="30" as="geometry" />
        </mxCell>
        <mxCell id="RxnZcE_f6Mh04UVKwM8g-163" value="&lt;font face=&quot;Century&quot;&gt;&lt;b&gt;Output2&lt;/b&gt;&lt;/font&gt;" style="text;html=1;align=center;verticalAlign=middle;resizable=0;points=[];autosize=1;strokeColor=none;fillColor=none;fontSize=18;fontFamily=Helvetica;" parent="1" vertex="1">
          <mxGeometry x="765" y="933.9000000000001" width="100" height="40" as="geometry" />
        </mxCell>
        <mxCell id="RxnZcE_f6Mh04UVKwM8g-164" value="" style="endArrow=none;html=1;rounded=0;exitX=1;exitY=0.5;exitDx=0;exitDy=0;entryX=0;entryY=0.5;entryDx=0;entryDy=0;entryPerimeter=0;" parent="1" source="RxnZcE_f6Mh04UVKwM8g-161" target="RxnZcE_f6Mh04UVKwM8g-162" edge="1">
          <mxGeometry width="50" height="50" relative="1" as="geometry">
            <mxPoint x="745.5" y="957.21" as="sourcePoint" />
            <mxPoint x="779" y="1063.02" as="targetPoint" />
            <Array as="points" />
          </mxGeometry>
        </mxCell>
        <mxCell id="RxnZcE_f6Mh04UVKwM8g-165" value="" style="endArrow=none;html=1;rounded=0;exitDx=0;exitDy=0;exitPerimeter=0;startArrow=none;entryX=0;entryY=0.5;entryDx=0;entryDy=0;exitX=0.992;exitY=0.503;" parent="1" source="RxnZcE_f6Mh04UVKwM8g-131" target="RxnZcE_f6Mh04UVKwM8g-166" edge="1">
          <mxGeometry width="50" height="50" relative="1" as="geometry">
            <mxPoint x="612" y="766" as="sourcePoint" />
            <mxPoint x="643" y="660.69" as="targetPoint" />
          </mxGeometry>
        </mxCell>
        <mxCell id="RxnZcE_f6Mh04UVKwM8g-166" value="&lt;b&gt;Signal Proccesing Circuit&lt;br&gt;&lt;/b&gt;" style="rounded=0;whiteSpace=wrap;html=1;labelBackgroundColor=none;fontFamily=Century;fontSize=18;fillColor=none;" parent="1" vertex="1">
          <mxGeometry x="618.5" y="731" width="120" height="69" as="geometry" />
        </mxCell>
        <mxCell id="RxnZcE_f6Mh04UVKwM8g-167" value="" style="shape=mxgraph.arrows2.arrow;verticalLabelPosition=bottom;shadow=0;dashed=0;align=center;html=1;verticalAlign=top;strokeWidth=1;dy=0;dx=10;notch=0;labelBackgroundColor=none;fontFamily=Helvetica;fontSize=18;fillColor=none;" parent="1" vertex="1">
          <mxGeometry x="772" y="750.9000000000001" width="93" height="30" as="geometry" />
        </mxCell>
        <mxCell id="RxnZcE_f6Mh04UVKwM8g-168" value="&lt;font face=&quot;Century&quot;&gt;&lt;b&gt;Output1&lt;/b&gt;&lt;/font&gt;" style="text;html=1;align=center;verticalAlign=middle;resizable=0;points=[];autosize=1;strokeColor=none;fillColor=none;fontSize=18;fontFamily=Helvetica;" parent="1" vertex="1">
          <mxGeometry x="765" y="743.0900000000001" width="100" height="40" as="geometry" />
        </mxCell>
        <mxCell id="RxnZcE_f6Mh04UVKwM8g-169" value="" style="endArrow=none;html=1;rounded=0;exitX=1;exitY=0.5;exitDx=0;exitDy=0;entryX=0;entryY=0.5;entryDx=0;entryDy=0;entryPerimeter=0;" parent="1" source="RxnZcE_f6Mh04UVKwM8g-166" target="RxnZcE_f6Mh04UVKwM8g-167" edge="1">
          <mxGeometry width="50" height="50" relative="1" as="geometry">
            <mxPoint x="745.5" y="767.4000000000001" as="sourcePoint" />
            <mxPoint x="779" y="873.21" as="targetPoint" />
            <Array as="points" />
          </mxGeometry>
        </mxCell>
        <mxCell id="RxnZcE_f6Mh04UVKwM8g-172" value="" style="pointerEvents=1;verticalLabelPosition=bottom;shadow=0;dashed=0;align=center;html=1;verticalAlign=top;shape=mxgraph.electrical.capacitors.capacitor_1;fontFamily=Century;spacingTop=-7;" parent="1" vertex="1">
          <mxGeometry x="525" y="1097.1999999999998" width="80" height="40" as="geometry" />
        </mxCell>
        <mxCell id="RxnZcE_f6Mh04UVKwM8g-173" value="" style="rounded=0;whiteSpace=wrap;html=1;fontFamily=Helvetica;fillColor=#CCCCCC;strokeColor=#000000;fontColor=#ffffff;rotation=90;strokeWidth=2;" parent="1" vertex="1">
          <mxGeometry x="414" y="1166" width="120" height="90" as="geometry" />
        </mxCell>
        <mxCell id="RxnZcE_f6Mh04UVKwM8g-174" value="" style="rounded=0;whiteSpace=wrap;html=1;fontFamily=Helvetica;fillColor=#E3D786;rotation=0;fontColor=#000000;strokeColor=#B09500;" parent="1" vertex="1">
          <mxGeometry x="447" y="1151" width="20" height="120" as="geometry" />
        </mxCell>
        <mxCell id="RxnZcE_f6Mh04UVKwM8g-175" value="" style="rounded=0;whiteSpace=wrap;html=1;fontFamily=Helvetica;fillColor=#E3D786;rotation=0;fontColor=#000000;strokeColor=#B09500;" parent="1" vertex="1">
          <mxGeometry x="482" y="1151" width="20" height="120" as="geometry" />
        </mxCell>
        <mxCell id="RxnZcE_f6Mh04UVKwM8g-176" value="" style="shape=waypoint;sketch=0;fillStyle=solid;size=6;pointerEvents=1;points=[];fillColor=none;resizable=0;rotatable=0;perimeter=centerPerimeter;snapToPoint=1;verticalAlign=top;spacingBottom=0;spacingTop=-5;fontFamily=Verdana;fontSize=12;" parent="1" vertex="1">
          <mxGeometry x="437" y="1097" width="40" height="40" as="geometry" />
        </mxCell>
        <mxCell id="RxnZcE_f6Mh04UVKwM8g-177" value="" style="pointerEvents=1;verticalLabelPosition=bottom;shadow=0;dashed=0;align=center;html=1;verticalAlign=top;shape=mxgraph.electrical.capacitors.capacitor_1;fontFamily=Century;spacingTop=-7;" parent="1" vertex="1">
          <mxGeometry x="525" y="1287.5" width="80" height="40" as="geometry" />
        </mxCell>
        <mxCell id="RxnZcE_f6Mh04UVKwM8g-185" value="" style="endArrow=none;html=1;rounded=0;exitX=0.438;exitY=0.582;exitDx=0;exitDy=0;exitPerimeter=0;entryX=0.5;entryY=0;entryDx=0;entryDy=0;" parent="1" source="RxnZcE_f6Mh04UVKwM8g-176" target="RxnZcE_f6Mh04UVKwM8g-174" edge="1">
          <mxGeometry width="50" height="50" relative="1" as="geometry">
            <mxPoint x="419" y="1127.31" as="sourcePoint" />
            <mxPoint x="463" y="1127.31" as="targetPoint" />
          </mxGeometry>
        </mxCell>
        <mxCell id="RxnZcE_f6Mh04UVKwM8g-186" value="" style="endArrow=none;html=1;rounded=0;exitX=0.562;exitY=0.512;exitDx=0;exitDy=0;exitPerimeter=0;entryX=0;entryY=0.5;entryDx=0;entryDy=0;entryPerimeter=0;" parent="1" source="RxnZcE_f6Mh04UVKwM8g-176" target="RxnZcE_f6Mh04UVKwM8g-172" edge="1">
          <mxGeometry width="50" height="50" relative="1" as="geometry">
            <mxPoint x="452" y="1127.31" as="sourcePoint" />
            <mxPoint x="562" y="1117.31" as="targetPoint" />
          </mxGeometry>
        </mxCell>
        <mxCell id="RxnZcE_f6Mh04UVKwM8g-187" value="" style="shape=waypoint;sketch=0;fillStyle=solid;size=6;pointerEvents=1;points=[];fillColor=none;resizable=0;rotatable=0;perimeter=centerPerimeter;snapToPoint=1;verticalAlign=top;spacingBottom=0;spacingTop=-5;fontFamily=Verdana;fontSize=12;" parent="1" vertex="1">
          <mxGeometry x="472" y="1287" width="40" height="40" as="geometry" />
        </mxCell>
        <mxCell id="RxnZcE_f6Mh04UVKwM8g-188" value="" style="verticalLabelPosition=bottom;verticalAlign=top;html=1;shape=mxgraph.basic.acute_triangle;dx=0.5;rotation=90;" parent="1" vertex="1">
          <mxGeometry x="319" y="1272" width="72.5" height="70" as="geometry" />
        </mxCell>
        <mxCell id="RxnZcE_f6Mh04UVKwM8g-189" value="" style="endArrow=none;html=1;rounded=0;exitX=0.5;exitY=1;exitDx=0;exitDy=0;exitPerimeter=0;entryX=0.141;entryY=0.927;entryDx=0;entryDy=0;entryPerimeter=0;" parent="1" source="RxnZcE_f6Mh04UVKwM8g-190" target="RxnZcE_f6Mh04UVKwM8g-187" edge="1">
          <mxGeometry width="50" height="50" relative="1" as="geometry">
            <mxPoint x="370.25" y="1293.25" as="sourcePoint" />
            <mxPoint x="425.25" y="1306.75" as="targetPoint" />
          </mxGeometry>
        </mxCell>
        <mxCell id="RxnZcE_f6Mh04UVKwM8g-190" value="" style="verticalLabelPosition=bottom;verticalAlign=top;html=1;shape=mxgraph.basic.acute_triangle;dx=0.5;rotation=-90;" parent="1" vertex="1">
          <mxGeometry x="319" y="1272" width="72.5" height="70" as="geometry" />
        </mxCell>
        <mxCell id="RxnZcE_f6Mh04UVKwM8g-191" value="" style="endArrow=none;html=1;rounded=0;exitX=0;exitY=0;exitDx=54.375;exitDy=35;exitPerimeter=0;entryX=0.5;entryY=1;entryDx=0;entryDy=0;entryPerimeter=0;" parent="1" source="RxnZcE_f6Mh04UVKwM8g-188" target="RxnZcE_f6Mh04UVKwM8g-190" edge="1">
          <mxGeometry width="50" height="50" relative="1" as="geometry">
            <mxPoint x="399.63" y="1330.7549999999999" as="sourcePoint" />
            <mxPoint x="550.88" y="1347.6299999999999" as="targetPoint" />
          </mxGeometry>
        </mxCell>
        <mxCell id="RxnZcE_f6Mh04UVKwM8g-192" value="" style="endArrow=none;html=1;rounded=0;exitX=0;exitY=0;exitDx=54.375;exitDy=35;exitPerimeter=0;entryX=0.5;entryY=1;entryDx=0;entryDy=0;entryPerimeter=0;" parent="1" source="RxnZcE_f6Mh04UVKwM8g-190" target="RxnZcE_f6Mh04UVKwM8g-190" edge="1">
          <mxGeometry width="50" height="50" relative="1" as="geometry">
            <mxPoint x="382.75" y="1253.25" as="sourcePoint" />
            <mxPoint x="425.25" y="1280.75" as="targetPoint" />
          </mxGeometry>
        </mxCell>
        <mxCell id="RxnZcE_f6Mh04UVKwM8g-193" value="&lt;b&gt;&lt;font face=&quot;Century&quot;&gt;Analog Switch&lt;/font&gt;&lt;/b&gt;" style="text;html=1;align=center;verticalAlign=middle;resizable=0;points=[];autosize=1;strokeColor=none;fillColor=none;fontFamily=Helvetica;" parent="1" vertex="1">
          <mxGeometry x="300.25" y="1337.31" width="110" height="30" as="geometry" />
        </mxCell>
        <mxCell id="RxnZcE_f6Mh04UVKwM8g-194" value="" style="endArrow=none;html=1;rounded=0;exitX=0.5;exitY=1;exitDx=0;exitDy=0;" parent="1" source="RxnZcE_f6Mh04UVKwM8g-175" target="RxnZcE_f6Mh04UVKwM8g-187" edge="1">
          <mxGeometry width="50" height="50" relative="1" as="geometry">
            <mxPoint x="494" y="1311.31" as="sourcePoint" />
            <mxPoint x="454" y="1341.31" as="targetPoint" />
          </mxGeometry>
        </mxCell>
        <mxCell id="RxnZcE_f6Mh04UVKwM8g-195" value="" style="endArrow=none;html=1;rounded=0;exitX=0.542;exitY=0.561;exitDx=0;exitDy=0;exitPerimeter=0;entryX=0;entryY=0.5;entryDx=0;entryDy=0;entryPerimeter=0;" parent="1" source="RxnZcE_f6Mh04UVKwM8g-187" target="RxnZcE_f6Mh04UVKwM8g-177" edge="1">
          <mxGeometry width="50" height="50" relative="1" as="geometry">
            <mxPoint x="492" y="1318.3799999999999" as="sourcePoint" />
            <mxPoint x="552" y="1307.31" as="targetPoint" />
          </mxGeometry>
        </mxCell>
        <mxCell id="RxnZcE_f6Mh04UVKwM8g-196" value="" style="endArrow=none;html=1;rounded=0;entryX=0;entryY=0;entryDx=0;entryDy=0;exitX=0;exitY=1;exitDx=0;exitDy=0;strokeWidth=1.5;" parent="1" source="RxnZcE_f6Mh04UVKwM8g-173" target="RxnZcE_f6Mh04UVKwM8g-173" edge="1">
          <mxGeometry width="50" height="50" relative="1" as="geometry">
            <mxPoint x="426" y="1128.31" as="sourcePoint" />
            <mxPoint x="536" y="1128.31" as="targetPoint" />
          </mxGeometry>
        </mxCell>
        <mxCell id="RxnZcE_f6Mh04UVKwM8g-197" value="" style="endArrow=none;html=1;rounded=0;entryX=0;entryY=0;entryDx=0;entryDy=0;exitX=0;exitY=1;exitDx=0;exitDy=0;strokeWidth=1.5;" parent="1" edge="1">
          <mxGeometry width="50" height="50" relative="1" as="geometry">
            <mxPoint x="429" y="1270.77" as="sourcePoint" />
            <mxPoint x="519" y="1270.77" as="targetPoint" />
          </mxGeometry>
        </mxCell>
        <mxCell id="RxnZcE_f6Mh04UVKwM8g-200" value="" style="endArrow=none;html=1;rounded=0;entryX=0;entryY=0;entryDx=36.25;entryDy=0;entryPerimeter=0;exitX=1;exitY=0.5;exitDx=0;exitDy=0;" parent="1" target="RxnZcE_f6Mh04UVKwM8g-190" edge="1">
          <mxGeometry width="50" height="50" relative="1" as="geometry">
            <mxPoint x="280.59999999999786" y="1307.01" as="sourcePoint" />
            <mxPoint x="303" y="1306.62" as="targetPoint" />
          </mxGeometry>
        </mxCell>
        <mxCell id="RxnZcE_f6Mh04UVKwM8g-201" value="" style="endArrow=none;html=1;rounded=0;exitDx=0;exitDy=0;exitPerimeter=0;startArrow=none;entryX=0;entryY=0.5;entryDx=0;entryDy=0;exitX=1;exitY=0.5;" parent="1" source="RxnZcE_f6Mh04UVKwM8g-177" target="RxnZcE_f6Mh04UVKwM8g-202" edge="1">
          <mxGeometry width="50" height="50" relative="1" as="geometry">
            <mxPoint x="631" y="1307.5" as="sourcePoint" />
            <mxPoint x="636" y="1202.5" as="targetPoint" />
          </mxGeometry>
        </mxCell>
        <mxCell id="RxnZcE_f6Mh04UVKwM8g-202" value="&lt;b&gt;Signal Proccesing Circuit&lt;br&gt;&lt;/b&gt;" style="rounded=0;whiteSpace=wrap;html=1;labelBackgroundColor=none;fontFamily=Century;fontSize=18;fillColor=none;" parent="1" vertex="1">
          <mxGeometry x="618.5" y="1272.81" width="120" height="69" as="geometry" />
        </mxCell>
        <mxCell id="RxnZcE_f6Mh04UVKwM8g-203" value="" style="shape=mxgraph.arrows2.arrow;verticalLabelPosition=bottom;shadow=0;dashed=0;align=center;html=1;verticalAlign=top;strokeWidth=1;dy=0;dx=10;notch=0;labelBackgroundColor=none;fontFamily=Helvetica;fontSize=18;fillColor=none;" parent="1" vertex="1">
          <mxGeometry x="772" y="1292.71" width="93" height="30" as="geometry" />
        </mxCell>
        <mxCell id="RxnZcE_f6Mh04UVKwM8g-204" value="&lt;font face=&quot;Century&quot;&gt;&lt;b&gt;Output2&lt;/b&gt;&lt;/font&gt;" style="text;html=1;align=center;verticalAlign=middle;resizable=0;points=[];autosize=1;strokeColor=none;fillColor=none;fontSize=18;fontFamily=Helvetica;" parent="1" vertex="1">
          <mxGeometry x="765" y="1285.9" width="100" height="40" as="geometry" />
        </mxCell>
        <mxCell id="RxnZcE_f6Mh04UVKwM8g-205" value="" style="endArrow=none;html=1;rounded=0;exitX=1;exitY=0.5;exitDx=0;exitDy=0;entryX=0;entryY=0.5;entryDx=0;entryDy=0;entryPerimeter=0;" parent="1" source="RxnZcE_f6Mh04UVKwM8g-202" target="RxnZcE_f6Mh04UVKwM8g-203" edge="1">
          <mxGeometry width="50" height="50" relative="1" as="geometry">
            <mxPoint x="745.5" y="1309.21" as="sourcePoint" />
            <mxPoint x="779" y="1415.02" as="targetPoint" />
            <Array as="points" />
          </mxGeometry>
        </mxCell>
        <mxCell id="RxnZcE_f6Mh04UVKwM8g-206" value="" style="endArrow=none;html=1;rounded=0;exitDx=0;exitDy=0;exitPerimeter=0;startArrow=none;entryX=0;entryY=0.5;entryDx=0;entryDy=0;exitX=0.992;exitY=0.503;" parent="1" source="RxnZcE_f6Mh04UVKwM8g-172" target="RxnZcE_f6Mh04UVKwM8g-207" edge="1">
          <mxGeometry width="50" height="50" relative="1" as="geometry">
            <mxPoint x="612" y="1118" as="sourcePoint" />
            <mxPoint x="643" y="1012.6899999999999" as="targetPoint" />
          </mxGeometry>
        </mxCell>
        <mxCell id="RxnZcE_f6Mh04UVKwM8g-207" value="&lt;b&gt;Signal Proccesing Circuit&lt;br&gt;&lt;/b&gt;" style="rounded=0;whiteSpace=wrap;html=1;labelBackgroundColor=none;fontFamily=Century;fontSize=18;fillColor=none;" parent="1" vertex="1">
          <mxGeometry x="618.5" y="1083" width="120" height="69" as="geometry" />
        </mxCell>
        <mxCell id="RxnZcE_f6Mh04UVKwM8g-208" value="" style="shape=mxgraph.arrows2.arrow;verticalLabelPosition=bottom;shadow=0;dashed=0;align=center;html=1;verticalAlign=top;strokeWidth=1;dy=0;dx=10;notch=0;labelBackgroundColor=none;fontFamily=Helvetica;fontSize=18;fillColor=none;" parent="1" vertex="1">
          <mxGeometry x="772" y="1102.9" width="93" height="30" as="geometry" />
        </mxCell>
        <mxCell id="RxnZcE_f6Mh04UVKwM8g-209" value="&lt;font face=&quot;Century&quot;&gt;&lt;b&gt;Output1&lt;/b&gt;&lt;/font&gt;" style="text;html=1;align=center;verticalAlign=middle;resizable=0;points=[];autosize=1;strokeColor=none;fillColor=none;fontSize=18;fontFamily=Helvetica;" parent="1" vertex="1">
          <mxGeometry x="765" y="1095.0900000000001" width="100" height="40" as="geometry" />
        </mxCell>
        <mxCell id="RxnZcE_f6Mh04UVKwM8g-210" value="" style="endArrow=none;html=1;rounded=0;exitX=1;exitY=0.5;exitDx=0;exitDy=0;entryX=0;entryY=0.5;entryDx=0;entryDy=0;entryPerimeter=0;" parent="1" source="RxnZcE_f6Mh04UVKwM8g-207" target="RxnZcE_f6Mh04UVKwM8g-208" edge="1">
          <mxGeometry width="50" height="50" relative="1" as="geometry">
            <mxPoint x="745.5" y="1119.4" as="sourcePoint" />
            <mxPoint x="779" y="1225.21" as="targetPoint" />
            <Array as="points" />
          </mxGeometry>
        </mxCell>
        <mxCell id="RxnZcE_f6Mh04UVKwM8g-211" value="&lt;b&gt;&lt;font face=&quot;Times New Roman&quot;&gt;25 MHz&lt;/font&gt;&lt;/b&gt;" style="ellipse;whiteSpace=wrap;html=1;aspect=fixed;verticalAlign=bottom;spacing=-24;" parent="1" vertex="1">
          <mxGeometry x="220" y="1276.8" width="60.4" height="60.4" as="geometry" />
        </mxCell>
        <mxCell id="RxnZcE_f6Mh04UVKwM8g-212" value="" style="pointerEvents=1;verticalLabelPosition=bottom;shadow=0;dashed=0;align=center;html=1;verticalAlign=top;shape=mxgraph.electrical.waveforms.sine_wave;" parent="1" vertex="1">
          <mxGeometry x="236.39999999999998" y="1294.35" width="28" height="25.31" as="geometry" />
        </mxCell>
        <mxCell id="RxnZcE_f6Mh04UVKwM8g-213" value="" style="verticalLabelPosition=bottom;verticalAlign=top;html=1;shape=mxgraph.basic.acute_triangle;dx=0.5;rotation=90;" parent="1" vertex="1">
          <mxGeometry x="1155" y="827" width="72.5" height="70" as="geometry" />
        </mxCell>
        <mxCell id="RxnZcE_f6Mh04UVKwM8g-214" value="" style="endArrow=none;html=1;rounded=0;exitX=0.5;exitY=1;exitDx=0;exitDy=0;exitPerimeter=0;entryX=0.141;entryY=0.927;entryDx=0;entryDy=0;entryPerimeter=0;" parent="1" source="RxnZcE_f6Mh04UVKwM8g-215" edge="1">
          <mxGeometry width="50" height="50" relative="1" as="geometry">
            <mxPoint x="1206.25" y="848.25" as="sourcePoint" />
            <mxPoint x="1328" y="862" as="targetPoint" />
          </mxGeometry>
        </mxCell>
        <mxCell id="RxnZcE_f6Mh04UVKwM8g-215" value="" style="verticalLabelPosition=bottom;verticalAlign=top;html=1;shape=mxgraph.basic.acute_triangle;dx=0.5;rotation=-90;" parent="1" vertex="1">
          <mxGeometry x="1155" y="827" width="72.5" height="70" as="geometry" />
        </mxCell>
        <mxCell id="RxnZcE_f6Mh04UVKwM8g-216" value="" style="endArrow=none;html=1;rounded=0;exitX=0;exitY=0;exitDx=54.375;exitDy=35;exitPerimeter=0;entryX=0.5;entryY=1;entryDx=0;entryDy=0;entryPerimeter=0;" parent="1" source="RxnZcE_f6Mh04UVKwM8g-213" target="RxnZcE_f6Mh04UVKwM8g-215" edge="1">
          <mxGeometry width="50" height="50" relative="1" as="geometry">
            <mxPoint x="1235.63" y="885.7549999999999" as="sourcePoint" />
            <mxPoint x="1386.88" y="902.6299999999999" as="targetPoint" />
          </mxGeometry>
        </mxCell>
        <mxCell id="RxnZcE_f6Mh04UVKwM8g-217" value="" style="endArrow=none;html=1;rounded=0;exitX=0;exitY=0;exitDx=54.375;exitDy=35;exitPerimeter=0;entryX=0.5;entryY=1;entryDx=0;entryDy=0;entryPerimeter=0;" parent="1" source="RxnZcE_f6Mh04UVKwM8g-215" target="RxnZcE_f6Mh04UVKwM8g-215" edge="1">
          <mxGeometry width="50" height="50" relative="1" as="geometry">
            <mxPoint x="1218.75" y="808.25" as="sourcePoint" />
            <mxPoint x="1261.25" y="835.75" as="targetPoint" />
          </mxGeometry>
        </mxCell>
        <mxCell id="RxnZcE_f6Mh04UVKwM8g-218" value="&lt;b&gt;&lt;font face=&quot;Century&quot;&gt;Analog Switch&lt;/font&gt;&lt;/b&gt;" style="text;html=1;align=center;verticalAlign=middle;resizable=0;points=[];autosize=1;strokeColor=none;fillColor=none;fontFamily=Helvetica;" parent="1" vertex="1">
          <mxGeometry x="1136.25" y="892.31" width="110" height="30" as="geometry" />
        </mxCell>
        <mxCell id="RxnZcE_f6Mh04UVKwM8g-219" value="" style="endArrow=none;html=1;rounded=0;entryX=0;entryY=0;entryDx=36.25;entryDy=0;entryPerimeter=0;exitX=1;exitY=0.5;exitDx=0;exitDy=0;" parent="1" target="RxnZcE_f6Mh04UVKwM8g-215" edge="1">
          <mxGeometry width="50" height="50" relative="1" as="geometry">
            <mxPoint x="1116.5999999999979" y="862.01" as="sourcePoint" />
            <mxPoint x="1139" y="861.6199999999999" as="targetPoint" />
          </mxGeometry>
        </mxCell>
        <mxCell id="RxnZcE_f6Mh04UVKwM8g-220" value="&lt;b&gt;&lt;font face=&quot;Times New Roman&quot;&gt;25 MHz&lt;/font&gt;&lt;/b&gt;" style="ellipse;whiteSpace=wrap;html=1;aspect=fixed;verticalAlign=bottom;spacing=-24;" parent="1" vertex="1">
          <mxGeometry x="1056" y="831.8" width="60.4" height="60.4" as="geometry" />
        </mxCell>
        <mxCell id="RxnZcE_f6Mh04UVKwM8g-221" value="" style="pointerEvents=1;verticalLabelPosition=bottom;shadow=0;dashed=0;align=center;html=1;verticalAlign=top;shape=mxgraph.electrical.waveforms.sine_wave;" parent="1" vertex="1">
          <mxGeometry x="1072.4" y="849.3499999999999" width="28" height="25.31" as="geometry" />
        </mxCell>
        <mxCell id="RxnZcE_f6Mh04UVKwM8g-222" value="" style="verticalLabelPosition=bottom;verticalAlign=top;html=1;shape=mxgraph.basic.acute_triangle;dx=0.5;rotation=90;" parent="1" vertex="1">
          <mxGeometry x="1153.5" y="1176.69" width="72.5" height="70" as="geometry" />
        </mxCell>
        <mxCell id="RxnZcE_f6Mh04UVKwM8g-223" value="" style="endArrow=none;html=1;rounded=0;exitX=0.5;exitY=1;exitDx=0;exitDy=0;exitPerimeter=0;" parent="1" source="RxnZcE_f6Mh04UVKwM8g-225" edge="1">
          <mxGeometry width="50" height="50" relative="1" as="geometry">
            <mxPoint x="1204.75" y="1197.94" as="sourcePoint" />
            <mxPoint x="1291.5" y="1211.69" as="targetPoint" />
          </mxGeometry>
        </mxCell>
        <mxCell id="RxnZcE_f6Mh04UVKwM8g-224" value="" style="endArrow=none;html=1;rounded=0;entryX=0;entryY=0;entryDx=36.25;entryDy=0;entryPerimeter=0;exitX=1;exitY=0.5;exitDx=0;exitDy=0;" parent="1" source="RxnZcE_f6Mh04UVKwM8g-229" target="RxnZcE_f6Mh04UVKwM8g-225" edge="1">
          <mxGeometry width="50" height="50" relative="1" as="geometry">
            <mxPoint x="1095.5" y="1211.5" as="sourcePoint" />
            <mxPoint x="1139.75" y="1197.94" as="targetPoint" />
          </mxGeometry>
        </mxCell>
        <mxCell id="RxnZcE_f6Mh04UVKwM8g-225" value="" style="verticalLabelPosition=bottom;verticalAlign=top;html=1;shape=mxgraph.basic.acute_triangle;dx=0.5;rotation=-90;" parent="1" vertex="1">
          <mxGeometry x="1153.5" y="1176.69" width="72.5" height="70" as="geometry" />
        </mxCell>
        <mxCell id="RxnZcE_f6Mh04UVKwM8g-226" value="" style="endArrow=none;html=1;rounded=0;exitX=0;exitY=0;exitDx=54.375;exitDy=35;exitPerimeter=0;entryX=0.5;entryY=1;entryDx=0;entryDy=0;entryPerimeter=0;" parent="1" source="RxnZcE_f6Mh04UVKwM8g-222" target="RxnZcE_f6Mh04UVKwM8g-225" edge="1">
          <mxGeometry width="50" height="50" relative="1" as="geometry">
            <mxPoint x="1234.13" y="1235.445" as="sourcePoint" />
            <mxPoint x="1385.38" y="1252.32" as="targetPoint" />
          </mxGeometry>
        </mxCell>
        <mxCell id="RxnZcE_f6Mh04UVKwM8g-227" value="" style="endArrow=none;html=1;rounded=0;exitX=0;exitY=0;exitDx=54.375;exitDy=35;exitPerimeter=0;entryX=0.5;entryY=1;entryDx=0;entryDy=0;entryPerimeter=0;" parent="1" source="RxnZcE_f6Mh04UVKwM8g-225" target="RxnZcE_f6Mh04UVKwM8g-225" edge="1">
          <mxGeometry width="50" height="50" relative="1" as="geometry">
            <mxPoint x="1217.25" y="1157.94" as="sourcePoint" />
            <mxPoint x="1259.75" y="1185.44" as="targetPoint" />
          </mxGeometry>
        </mxCell>
        <mxCell id="RxnZcE_f6Mh04UVKwM8g-228" value="&lt;b&gt;&lt;font face=&quot;Century&quot;&gt;Analog Switch&lt;/font&gt;&lt;/b&gt;" style="text;html=1;align=center;verticalAlign=middle;resizable=0;points=[];autosize=1;strokeColor=none;fillColor=none;fontFamily=Helvetica;" parent="1" vertex="1">
          <mxGeometry x="1134.75" y="1241" width="110" height="30" as="geometry" />
        </mxCell>
        <mxCell id="RxnZcE_f6Mh04UVKwM8g-229" value="&lt;b&gt;&lt;font face=&quot;Times New Roman&quot;&gt;32.768 kHz&lt;/font&gt;&lt;/b&gt;" style="ellipse;whiteSpace=wrap;html=1;aspect=fixed;verticalAlign=bottom;spacing=-24;" parent="1" vertex="1">
          <mxGeometry x="1054.5" y="1181.49" width="60.4" height="60.4" as="geometry" />
        </mxCell>
        <mxCell id="RxnZcE_f6Mh04UVKwM8g-230" value="" style="pointerEvents=1;verticalLabelPosition=bottom;shadow=0;dashed=0;align=center;html=1;verticalAlign=top;shape=mxgraph.electrical.waveforms.sine_wave;" parent="1" vertex="1">
          <mxGeometry x="1070.9" y="1199.04" width="28" height="25.31" as="geometry" />
        </mxCell>
        <mxCell id="fnM3zL6HeMHkC66Y3rBm-3" value="&lt;b&gt;Voltage follower&lt;br&gt;&lt;/b&gt;" style="rounded=0;whiteSpace=wrap;html=1;labelBackgroundColor=none;fontFamily=Century;fontSize=18;fillColor=none;" vertex="1" parent="1">
          <mxGeometry x="290.75" y="38.5" width="94" height="60" as="geometry" />
        </mxCell>
        <mxCell id="fnM3zL6HeMHkC66Y3rBm-4" value="" style="endArrow=none;html=1;rounded=0;exitX=1;exitY=0.5;exitDx=0;exitDy=0;entryX=0.5;entryY=1;entryDx=0;entryDy=0;entryPerimeter=0;" edge="1" parent="1" source="fnM3zL6HeMHkC66Y3rBm-3" target="530qpDRSOnJtIDgYeNtD-23">
          <mxGeometry width="50" height="50" relative="1" as="geometry">
            <mxPoint x="330" y="118" as="sourcePoint" />
            <mxPoint x="362" y="179" as="targetPoint" />
          </mxGeometry>
        </mxCell>
        <mxCell id="fnM3zL6HeMHkC66Y3rBm-5" value="&lt;b&gt;Voltage follower&lt;br&gt;&lt;/b&gt;" style="rounded=0;whiteSpace=wrap;html=1;labelBackgroundColor=none;fontFamily=Century;fontSize=18;fillColor=none;" vertex="1" parent="1">
          <mxGeometry x="290.75" y="228.5" width="94" height="60" as="geometry" />
        </mxCell>
        <mxCell id="fnM3zL6HeMHkC66Y3rBm-6" value="" style="endArrow=none;html=1;rounded=0;exitX=1;exitY=0.5;exitDx=0;exitDy=0;entryX=0;entryY=0;entryDx=36.25;entryDy=0;entryPerimeter=0;" edge="1" parent="1" source="fnM3zL6HeMHkC66Y3rBm-5" target="530qpDRSOnJtIDgYeNtD-74">
          <mxGeometry width="50" height="50" relative="1" as="geometry">
            <mxPoint x="272.25" y="268" as="sourcePoint" />
            <mxPoint x="301" y="268" as="targetPoint" />
          </mxGeometry>
        </mxCell>
        <mxCell id="fnM3zL6HeMHkC66Y3rBm-7" value="" style="endArrow=none;html=1;rounded=0;entryX=0.143;entryY=0.544;entryDx=0;entryDy=0;entryPerimeter=0;" edge="1" parent="1">
          <mxGeometry width="50" height="50" relative="1" as="geometry">
            <mxPoint x="419.99" y="309.42" as="sourcePoint" />
            <mxPoint x="430" y="309.43" as="targetPoint" />
          </mxGeometry>
        </mxCell>
        <mxCell id="fnM3zL6HeMHkC66Y3rBm-8" value="" style="endArrow=none;html=1;rounded=0;entryX=0;entryY=0;entryDx=18.125;entryDy=35;entryPerimeter=0;" edge="1" parent="1">
          <mxGeometry width="50" height="50" relative="1" as="geometry">
            <mxPoint x="430" y="310" as="sourcePoint" />
            <mxPoint x="442" y="277" as="targetPoint" />
          </mxGeometry>
        </mxCell>
        <mxCell id="fnM3zL6HeMHkC66Y3rBm-9" value="&lt;font face=&quot;Century&quot;&gt;&lt;b&gt;Control&lt;/b&gt;&lt;/font&gt;" style="text;html=1;align=center;verticalAlign=middle;resizable=0;points=[];autosize=1;strokeColor=none;fillColor=none;fontFamily=Helvetica;" vertex="1" parent="1">
          <mxGeometry x="360" y="293.5" width="70" height="30" as="geometry" />
        </mxCell>
      </root>
    </mxGraphModel>
  </diagram>
</mxfile>
